/* XPM */
static char *result[] = {
/* columns rows colors chars-per-pixel */
"64 64 218 2 ",
"   c #000000",
".  c #070604",
"X  c #01000C",
"o  c #170A04",
"O  c #041302",
"+  c #061A03",
"@  c #091A04",
"#  c #030012",
"$  c #0C0014",
"%  c #050A18",
"&  c #130016",
"*  c #1A0014",
"=  c #15001B",
"-  c #19021C",
";  c #1B0B1D",
":  c #0D1015",
">  c #161719",
",  c #1A1B1D",
"<  c #28040A",
"1  c #221B16",
"2  c #082405",
"3  c #0E2902",
"4  c #112A05",
"5  c #132808",
"6  c #003300",
"7  c #153406",
"8  c #19380B",
"9  c #1B2618",
"0  c #1C3414",
"q  c #382605",
"w  c #252319",
"e  c #31271A",
"r  c #23371C",
"t  c #1E0723",
"y  c #1C1A21",
"u  c #2A0426",
"i  c #221A23",
"p  c #1D2225",
"a  c None",
"s  c None",
"d  c #262B25",
"f  c #292926",
"g  c None",
"h  c #282728",
"j  c #272828",
"k  c None",
"l  c #332B24",
"z  c #342E2B",
"x  c #392F28",
"c  c #273125",
"v  c #293127",
"b  c #2B322A",
"n  c #2C3A28",
"m  c #32312D",
"M  c #3A352A",
"N  c #363531",
"B  c #383631",
"V  c #3B3B32",
"C  c #5B0B03",
"Z  c #513409",
"A  c #6E350E",
"S  c #571033",
"D  c #4A2E3A",
"F  c #004D0B",
"G  c #1E440C",
"H  c #005B03",
"J  c #244816",
"K  c #295216",
"L  c #295316",
"P  c #2E5C1B",
"I  c #375E1C",
"U  c #016900",
"Y  c #14741B",
"T  c #2A710F",
"R  c #33651D",
"E  c #2B7919",
"W  c #305022",
"Q  c #006E21",
"!  c #366B20",
"~  c #396A22",
"^  c #316E2A",
"/  c #3D7524",
"(  c #3F7627",
")  c #575F1D",
"_  c #6D430D",
"`  c #6B4214",
"'  c #794C14",
"]  c #474439",
"[  c #565239",
"{  c #417927",
"}  c #427E28",
"|  c #516B39",
" . c #5E4747",
".. c #5D5A45",
"X. c #604B48",
"o. c #645B4B",
"O. c #69634F",
"+. c #6D6652",
"@. c #766959",
"#. c #7F765F",
"$. c #7F7660",
"%. c #852F0E",
"&. c #8A4916",
"*. c #935C1C",
"=. c #B6700C",
"-. c #AA7F2B",
";. c #BB7729",
":. c #C47E2B",
">. c #8A624D",
",. c #AA6C5F",
"<. c #877A66",
"1. c #BA6968",
"2. c #C4756E",
"3. c #CA7371",
"4. c #D77D79",
"5. c #379114",
"6. c #3DB40E",
"7. c #328426",
"8. c #3B9A29",
"9. c #419E1F",
"0. c #45832A",
"q. c #47882B",
"w. c #4A8C2E",
"e. c #47942A",
"r. c #4C8233",
"t. c #4E9431",
"y. c #499E30",
"u. c #509632",
"i. c #529A33",
"p. c #599B3A",
"a. c #6C9331",
"s. c #4DB427",
"d. c #56A236",
"f. c #58A537",
"g. c #5AA638",
"h. c #5BAB39",
"j. c #59B535",
"k. c #5DB23C",
"l. c #62B53E",
"z. c #64B93F",
"x. c #3EC103",
"c. c #4BC41F",
"v. c #55C32C",
"b. c #5AC532",
"n. c #5CC83C",
"m. c #62C73B",
"M. c #6B854D",
"N. c #789257",
"B. c #65B542",
"V. c #66BD41",
"C. c #69BE44",
"Z. c #74A951",
"A. c #67C242",
"S. c #6BC544",
"D. c #62C940",
"F. c #6DCB46",
"G. c #6FC648",
"H. c #6FC948",
"J. c #71CD47",
"K. c #76C54A",
"L. c #71CD49",
"P. c #73D24A",
"I. c #76D34A",
"U. c #7CC755",
"Y. c #7BD751",
"T. c #CA832D",
"R. c #DB8C31",
"E. c #E69636",
"W. c #FCA53B",
"Q. c #F8A33D",
"!. c #81915F",
"~. c #82BE4E",
"^. c #87BB54",
"/. c #98B359",
"(. c #93886E",
"). c #978E72",
"_. c #988E73",
"`. c #9C9276",
"'. c #AB8E6E",
"]. c #A1957A",
"[. c #A3997B",
"{. c #A89C7F",
"}. c #A3A37B",
"|. c #D18976",
" X c #E0847E",
".X c #84CB5C",
"XX c #A7CC7A",
"oX c #E47080",
"OX c #A99B81",
"+X c #ADA383",
"@X c #B6AA8A",
"#X c #BDB28F",
"$X c #BFB391",
"%X c #C2B593",
"&X c #C4B896",
"*X c #CABD99",
"=X c #B5CB87",
"-X c #AED280",
";X c #BBD28C",
":X c #C1CA91",
">X c #CDC09C",
",X c #D0C49F",
"<X c #C6D495",
"1X c #D3C6A0",
"2X c #D5C9A2",
"3X c #DACCA6",
"4X c #DED3A9",
"5X c #DFDCA9",
"6X c #E3D5AD",
"7X c #E5D8AF",
"8X c #E7D5B1",
"9X c #E7D9B0",
"0X c #EADCB3",
"qX c #F1DDB9",
"wX c #E6E0AF",
"eX c #EEE0B6",
"rX c #F3E5B9",
"tX c #F3E5BA",
/* pixels */
"k k k k k k k k k k k k k k k k k k k k k k k k k k k k k k k k k k k k k k k k k k k k k k k k k k k h k k k k k k k k k k k k ",
"k k k k g k k k k k k k k k g k k k k k k g k k k k g k k k g k k k k g k k k k k k k g k k k g a : # h k k k k k k k k k k k k ",
"k k k k k k h k k k g k k k k k k k k k g k k k k k k k g k k k k k k k k k k k g k k k k k k k   w M k k k k k k k k k k k k k ",
"k g k k k k k k k k k k h k k k k k g b N k g k g k k k k k k k g k k k k k h k k k k k g k a N   `.4XM : f k k k k k k k k k k ",
"k k k k k k k k k s k g k k k k k k f %   a k a k k k k k k g k k g k k k k k k k k k g k k k N   {.0X    N k k k k k k k k k g ",
"k k k g g k k k k k k k k k k g k k y ] o.m g a k a k k k k k k k k k k k g k k k k k k k k a N   [.0X+.V a k g g k k g k k k k ",
"g k k k k k k g k k k k k g k k g M   `.9Xw   ] a m N k g k k k k k k k k k k k k g k k k k g N   [.0XeX`.  N g k k k k k k k k ",
"k k k k k k k k k k k k k k k k g B   `.0X*X<.  N     f g k k k k k g k k k k g k k k k k k w f   ].tXeX`.  B g k k k k k g k k ",
"k k k g k k g k k k k k k g k k g N   `.0XrX%XO.p @.@.% k k k k g k k k k k k k k k k k g j y o +.{.>X0X`.  N a k k k k k k g k ",
"k k s k k k k k k k k k k k k k g N   _.eX6X0X4X  >X3X  f k h k k k k k k k g g g g g g g N p   7X@X  0X].  N a g k k g k k k k ",
"k k k k k k k k g k k g k s k k g M   ).0X7X0X3X  >X1X  z j k k k k g f b f b f b f f b k f ,   4X0X,XeX`.  N g k k k k k k k k ",
"k k k k k g k k k k k k k k k g g B   `.rX7X0X3X  >X1X  k j h h k k f ; = = t - - - = ; j j y w ].2XeXeX`.  N a h k k k k k h k ",
"k k g k k k k k k k k k k k k k g N   (.7X7X0X3X. >X,X. V m h b b b b 0 7 7 7 7 7 7 7 0 v v v V   _.0X0X`.  V v v k k k k k k k ",
"k k k k k k k g k g k k k k k k k k k k ..4X0X7X4X7X7X6X[   B         d.S.V.V.V.V.C.S.h.      *   {.tX0X`.  *   # f k k k g k k ",
"k k k k k k s k k k k k k k k g k g m   1 6X0X0X0X0X0X0X&X<.O u.i.i.t.z.F.F.S.F.F.S.H.A.i.i.i.i.e.N.OXrX].  p.i.0.$ d k k k k k ",
"k k g k k k k g k k g k k k k k h g z : V *X6X7X7X7X7X7XtX#X  K.J.F.F.F.S.S.S.S.S.S.S.S.F.F.F.F.I.9.6 3X(.F L.P.h.  s k k k k g ",
"k k k k k k k k k k k k k k k k k k b b V   @XtX0XqX0X7XtX#X  C.S.A.S.S.S.S.F.S.S.S.F.S.S.S.A.S.S.F.G.5   R A.F.d.  d k k k k k ",
"g k k k k k k g k k g k k k k k k k #   #   X.<.<.@.OXtX].M.h.G.S.S.S.S.S.S.S.S.S.S.S.S.S.S.S.S.S.S.A.h.R L S.P.h.  d k k k k k ",
"k k k k g k k k g k k k k k k k g i ~ / ! { T H U F M.>X| 5.P.S.S.S.S.S.S.S.S.S.S.S.S.S.S.S.S.S.S.S.S.P.q.G F.z.w.# f k k k k k ",
"k k k a k k k k k k k k g k k k 9   l.F.F.F.J.L.L.I.h.  l.K.m.m.S.S.S.S.S.S.S.S.S.S.S.S.S.S.F.S.S.S.A.F.( G F.R   b k k k k k k ",
"k k k a s k k k k k k k k k k d a   z.J.V.P O R F.S.A.z.S.S.S.S.S.F.S.F.F.J.F.A.S.S.S.S.S.S.S.S.S.F.L.F.A.g.P n g k g k k k k k ",
"k k k k k k k a k k k g k k k k a > q.l.S.q.} q.t.z.F.F.S.S.S.S.S.S.F.h.u.i.A.F.S.F.S.S.S.S.S.S.F.l.t.t.A.V.  ; f g k k k k k k ",
"k k k k k k k k g k k k k k g k a v   / F.F.P.A.  f.J.S.S.S.S.S.S.S.S.R     k.S.S.S.S.S.F.S.S.A.S.w.    t.l.8 d k k k k k k k k ",
"k k k k k k k k k k k k k k k k g v   q.P.C.S.l.  f.F.S.S.S.S.S.S.z.8 c d 3   w.J.S.S.S.S.S.S.F.R , n 5 O R A.~ # b g k k g k k ",
"k g k k k k k a k k k k k g k k h f - W w.S.J.S.i.z.F.S.S.S.S.S.F.z.  & > @   0.F.S.S.S.S.S.S.S.L   9 @   L J.R   b g k k k k k ",
"k k k k k k k k k k k k k k k k k g b -   k.z.z.z.S.S.S.S.S.S.S.S.z.2     @   q.J.S.S.S.F.S.S.S.P   O O   P F.0.r b k k k k k k ",
"k k k k k k k k a k k k k k k k k k k b b         f.J.S.S.S.S.S.J.z.    2 4   0.L.A.S.S.S.S.S.S.J   5 5   K G.K.g.  k k g k k k ",
"k k g k k k k k k k k k k k k k k k , X 9 d.h.h.h.z.F.S.S.S.S.n.n.n.h.P     i.z.F.S.S.S.S.S.S.S.l./     } z.n.D.n.g.J - f g k k ",
"k k k k k g s a k k k k k k k k k k 9   7 A.L.F.F.F.S.S.S.S.S././.^.J.t.~ / C.J.S.S.S.S.S.S.F.S.P.h.! ! h.I././.^.F.L # b k k k ",
"k g k k k k k k k k k k k g k k k k f - 4 C.F.A.A.S.F.S.S.S.G.4.oX|.S.F.J.F.S.S.S.F.S.S.S.S.G.D.S.S.J.L.m.^.4.oX|.m.K $ b k k k ",
"k k k k k k k k k k k k k k k a k z z h v @ i.H.S.S.S.S.S.S.S..X^.~.S.S.S.S.S.S.A.8 d.I.P.Y E P.! w.F.A.S.G.~..XK.S.L # b k k k ",
"k k k g k k g k k k k g k k a k p % % % c / h.H.S.S.S.S.S.S.S.m.m.S.S.S.S.S.S.S.S.q.w.i.8.>.>.y.  } J.S.S.A.m.D.m.F.L $ b g k k ",
"k k k h k k k k g k g k k k z k e Z Z < 6 S.F.S.S.S.S.S.S.S.S.S.F.S.S.S.S.S.S.S.G.P.q.. . 3.2.  o t.F.S.S.S.G.S.S.B.L $ b g k k ",
"k k k k h k k h z x z k z f     &.E.W.:.2 S.J.F.S.F.S.S.S.S.S.S.S.S.S.S.S.F.S.S.m.K.7.S 4. X1.+ l.S.S.S.S.S.S.F.h.O c g h h k k ",
"g k h h k k k f # # X 1 # w :.A ' W.:.A   { } w.S.S.S.S.F.S.S.S.S.S.S.S.S.S.S.S.S.J.E S  X X2.  B.F.S.S.S.S.S.P.h.  k k g k k h ",
"k k g g a s s p ` ' _ < q *.W.*.Z E.) F I K   7 S.S.S.S.S.S.S.S.S.S.F.S.S.F.S.S.S.J.e.[ 2.3.,.H B.F.S.S.S.S.S.A.u.X d k k k k k ",
"k k l l o       T.W.Q.q ;.Q.Q.*..   B.L.A.J.w.J S.S.S.F.F.S.S.S.S.S.S.S.S.S.S.F.S.S.F.k.    ! F.S.S.S.S.S.A.L.~   n g k k k k k ",
"a 1 X X   ;.T.  E.R.A o C &.%.a.k.h.A.G.S.F.0.+ F.P.k.L A.J.S.S.S.F.S.S.S.S.S.S.S.S.S.S.h.h.l.S.S.S.S.F.P.V.~ J i k h k k h k k ",
"f   _ *.  ;.:.  ;.-.Q { E Q Q k.P.H.S.S.S.F.d./ g.h.i.R i.B.F.S.S.S.S.S.F.S.S.S.S.S.S.F.F.J.F.S.S.S.S.g.h.t.X i f k k k k k k g ",
"x   ;.Q.e .   5   7.K.G.J.J.J.S.A.S.S.S.F.S.F.V.    ! P.8 / J.S.F.S.S.S.S.S.S.S.S.S.S.S.S.S.S.S.S.F.V.O     b f k k g k k k k k ",
"o E.=.    e.G.B.z.V.G.S.S.S.S.S.S.S.F.S.S.S.S.S.z.z.z.S.A.t.3 O i.F.S.S.S.S.S.S.S.S.S.S.A.J.h.@ L L L f d k g h k k g k k k k k ",
"f =.'.}.OX^.b.S.F.F.A.S.S.S.S.F.S.S.S.S.S.S.S.S.F.F.F.S.F.k.0.0.h.F.S.S.S.S.S.S.F.S.S.S.S.F.l.0.4   & a k k k k k k k k k k k g ",
"V   OXeX0XXXS..XK.G.S.S.S.S.S.S.S.S.S.S.S.S.S.S.S.S.S.S.S.S.J.J.F.S.S.S.S.S.S.S.S.G.S.G.S.S.F.L.P * n h k k g k k h k k k g k k ",
"h x s x   %XrX0X.Xx.m.F.S.S.S.S.F.S.S.S.S.S.F.S.S.S.S.S.S.S.S.S.S.S.S.S.F.J.S.F.S.b.b.b.b.S.G.A.G # n k k k k k k k k k k k k k ",
"k k y :   $.]._.:X<X:XS.n.G.S.S.S.S.S.S.S.S.F.S.S.S.F.S.S.F.J.S.S.S.S.F.l.( V.m.S.;X<X<X<X.Xv.G.h./ $ d h k h k k k k k k k k g ",
"k k f f N       #X8X0XXXU.S.G.S.S.S.F.S.S.S.S.S.S.S.S.S.S.z.l.S.S.S.S.F.h.  z.U.XX0XqX0XqX=XU.B.L.d.  b h k k k g k k k k k k k ",
"k k k k g m N ]   (.eX0X=Xc.L.S.S.S.S.S.S.F.S.S.S.S.S.S.J.i.  A.F.S.A.F.g.* 6.-X0X7X7X7X6X0X&X  S.i.  b h k k k k k k g k h k k ",
"k k k g g g g k , ] (.7XwX:X~ h.F.S.S.S.S.S.S.S.S.S.S.S.F.i.  A.F.S.S.F.h.  =X7X7X9X0X9X7XrX*X  C.i.  b h k g k k k k k k k k k ",
"k k k k k k k a m     +X6X6X  i.F.S.S.F.S.S.F.S.S.S.S.A.J.i.  A.F.S.S.F.h.  3XrX7X0X7X0X8X1X+XT S.i.  b h k k k k k k k k k k k ",
"k k k k k k k k k f ]   +X4X  f.F.S.S.S.S.S.S.S.S.S.S.S.J.p.1 z.S.S.A.J.h.  ,X0X7X7X0X7X0X@.H L.F.u.  b h g k k g k k k k g k k ",
"k k k k k g k k k k g n D ..z.A.F.S.S.S.S.S.A.S.L.L.S.G.b.v.s.K i.L.A.J.h.  2X0X7X8X7X0XtX<.U G.F.t.  b g k k g k k k k k k k k ",
"k k g k k k k k k k f = L e.F.F.S.S.S.S.S.F.F.A.7.j.m.m.XX;XXXu e.P.A.J.h.  2XeX8X9X0X6X@X .T L.J.i.  v g k k k k k k g k k k g ",
"k k k k k g k k k g v + d.P.D.F.S.S.S.S.G.C.S.B.S Z..XU.5XrX7XD e.L.S.F.h.X 2XeX7X9X7X*X    ( C.S.w.  b g k k k k k k k k k k k ",
"k g k k k k k g b ; 3 z.m.S.S.S.A.S.F.L.A.6   [ 7X7X7X7X7X7X6XX 5.Y.G.Y.h.  ,X0X6XtX{.  ] f w 3 3 9 k k k k k k k k g k g k k k ",
"k k k k k k k g f t 3 V.F.S.S.F.H.L.t./ r.$X$X%X9XeX9X0X9X0X6X&X!.U E U M.$X6XrX9X[...  f k a ; ; i f k k k k k k k k k k k k h ",
"k k k g k k g g b ; 3 z.F.S.F.B.h.B.K   u ,X9XqX7X9X9X9X9X0X9XtX#X .@. .].rX1X1X*X    V a k k f b k k k k k k g g k k g k k k k ",
"g k k k g k k g b ; 3 B.F.S.F./     d r 9   OXtX0X0X0X7X9X9X8X6X8X0X0XeXeX0Xo.    m m g g k k a a k k k k g k k k k g k k k k s ",
"k k k k k k k g b - 3 S.J.F.J.0.= d g g a > ..<.@.o.].rXeXeXeXrXeXeXtXOXO.#.V , a a k k k k k k k k g k k k k k k k k k k k k k ",
"k k g k k k k k f y 9 i.f.p.h.^ u v h k a N     T U M.&X$X$X$X$X%X$X&Xo.    p f k k g k g k k g k k k k k k k k k k k k k g k k ",
"k k k k k k k k k j k     X u i k g k k a f - I G.I.h.                , V B f k k k k k k k k k k k k k k s g k k g k k k k k k ",
"k k k k k k k k k k k d d b b k g k k k g k a d J G J z m z b z z b m k k k k k k g k k s k k k k k k g k k k k s k k k k k g k ",
"k k k k k k k k k k k k k k k k k k k k k g g a & $ - g g g h g g g g k k k k k k k k k k k k g k k k k g k k k k k k k k k k k ",
"k k k k k k k k k k k k k k k k k k k k k k k k k k k k k k k k k k k k k k k k k k k k k k k k k k k k k k k k k k k k k k k k ",
"k k k k k k k k k k k k k k k k k k k k k k k k k k k k k k k k k k k k k k k k k k k k k k k k k k k k k k k k k k k k k k k k "
};
