/* XPM */
static char *result[] = {
/* columns rows colors chars-per-pixel */
"64 64 25 1 ",
"  c #301C19",
". c #34343A",
"X c #4B2F25",
"o c #633724",
"O c #673D31",
"+ c #5A440D",
"@ c #524238",
"# c #53535A",
"$ c #766A55",
"% c #7F7873",
"& c #8B6B1C",
"* c #8F4F34",
"= c #9C604C",
"- c #4CB528",
"; c #BC8356",
": c #AB9A6E",
"> c #F1C146",
", c #007DFF",
"< c #8A8A8F",
"1 c #B6B6B6",
"2 c #C8BCB4",
"3 c #EFC193",
"4 c #DBDBE2",
"5 c #F1F1F1",
"6 c None",
/* pixels */
"6666666666666666666666666666666666666666666666666666666666666666",
"6666666666666666666666666666666666666666666666666666666666666666",
"6666666666666666666666666666666666666666666666666666666666666666",
"6666666666666666666666666666666666666666666666666666666666666666",
"6666666666666666666666666666666666666666666666666666666666666666",
"6666666666666666666666666666666666666666666666666666666666666666",
"6666666666666666666666666666666666666666666666666666666666666666",
"6666666666666666666666666666666666666666666666666666666666666666",
"6666666666666666666666666666666666666666666666666666666666666666",
"6666666666666666666666666666666666666666666666666666666666666666",
"666666666666666666666666664444444<666666666666666666666666666666",
"66666666666666666666666664444444<<666666666666666666666666666666",
"6666666666666666666666664444444<<4446666666666666666666666666666",
"6666666666666666666666614444441444444666666666666666666666666666",
"6666666666666666666666#1114444444441<<66666666666666666666666666",
"6666666666666666666666##1111444444441<66666666666666666666666666",
"66666666666666666666666#1111144444444<66666666666666666666666666",
"66666666666666666666666#111<<33334444<66666666666666666666666666",
"6666666666666666666666 <<3<<333333<#4<66666666666666666666666666",
"6666666666666666666666 <<3<<;oo33o<###66666666666666666666666666",
"6666666666666666666666 < <<<34o334##6666666666666666666666666666",
"6666666666666666666666     334-334#66666666666666666666666666666",
"666666666666666666666666   ;333333#66666666666666666666666666666",
"6666666666666666666666666 oo;33336666666666666666666666666666666",
"66666666666666666666666666  ;;;o66666666666666666666666666666666",
"6666666666666666666666666@:::33;:@666666666666666666666666666666",
"666666666666666666666666@:::::33;:@66666666666666666666666666666",
"66666666666666666666666@:::::::$$::@6666666666666666666666666666",
"6666666666666666666666$::::@:::::::@6666666666666666666666666666",
"66666666666666666666@@$$:::@$::::::@6666666666666666666666666666",
"66666666666666666666@:::$:@  $::::: 6666666666666666666666666666",
"66666666666666666666@@:::@   @@$$$  6666666666666666666666666666",
"66666666666666666666@;33*6   @$$$$   666666666666666666666666666",
"66666666666666666666*333*66XXOOO22O  666666666666666666666666666",
"66666666666666666666*33;*66XXOOO2OO  666666666666666666666666666",
"66666666666666666666*33*666&&OOO22O@  66666666666666666666666666",
"6666666666666666666&&33*66&>&$$$$$$$   6666666666666666666666666",
"666666666666666666&>>3333&>>&$$$$$$$   6666666666666666666666666",
"6666666666666666666&>3333+>>..$$$$$$   6666666666666666666666666",
"6666666666666666666&&333++,,<<...@@@   6666666666666666666666666",
"666666666666666666666***++,,<<<<<... 666666666666666666666666666",
"666666666666666666666666&>>&###<<<<<...6666666666666666666666666",
"666666666666666666666666&>>&######<<<11###6666666666666666666666",
"666666666666666666666666&>&&...######11111###6666666666666666666",
"666666666666666666666666&&&OO  ...#####<11155<<<6666666666666666",
"666666666666666666666666 OOO 6 XXX...#####<55555<<66666666666666",
"66666666666666666666666 XOOO 6 XXX 66...#####<5555<<666666666666",
"66666666666666666666666 OOO 66 XXX 66666...#####<55<<66666666666",
"66666666666666666666666 OOO 66 XX 666666666...###<55<66666666666",
"66666666666666666666666 OOX 66XXX 666666666666.....<666666666666",
"66666666666666666666666 OO 66 XXX 666666666666666666666666666666",
"6666666666666666666666 XOO 66 XX 6666666666666666666666666666666",
"6666666666666666666666 XOO 66 XX 6666666666666666666666666666666",
"6666666666666666666666 OOX 66 XX 6666666666666666666666666666666",
"6666666666666666666666 OO 666 XX 6666666666666666666666666666666",
"666666666666666666666X22O 666 X%% 666666666666666666666666666666",
"66666666666666666666O====O666 OOOO 66666666666666666666666666666",
"6666666666666666666O=====O666 OOOOO 6666666666666666666666666666",
"6666666666666666666666666666666666666666666666666666666666666666",
"6666666666666666666666666666666666666666666666666666666666666666",
"6666666666666666666666666666666666666666666666666666666666666666",
"6666666666666666666666666666666666666666666666666666666666666666",
"6666666666666666666666666666666666666666666666666666666666666666",
"6666666666666666666666666666666666666666666666666666666666666666"
};
