/* XPM */
static char *c5dd0354d7a74bcac6e161db7b2429fe04Ee8qgUMPE82XG2[] = {
/* columns rows colors chars-per-pixel */
"64 64 197 2 ",
"   c #E30000",
".  c #E40E00",
"X  c #E31300",
"o  c #E31C00",
"O  c #E32300",
"+  c #E42B00",
"@  c #E33500",
"#  c #E43C00",
"$  c #E54400",
"%  c #E54B00",
"&  c #E5490C",
"*  c #E55300",
"=  c #E6560D",
"-  c #E5580A",
";  c #E65614",
":  c #E45A15",
">  c #E6591D",
",  c #E76300",
"<  c #E96E00",
"1  c #E86D17",
"2  c #E65B24",
"3  c #E6572F",
"4  c #E65D2C",
"5  c #E44835",
"6  c #E65631",
"7  c #E65D32",
"8  c #E65C39",
"9  c #E86727",
"0  c #E5612E",
"q  c #E97926",
"w  c #E76233",
"e  c #E76B33",
"r  c #E86D34",
"t  c #E7643A",
"y  c #E8663D",
"u  c #E56A3E",
"i  c #E77034",
"p  c #E87435",
"a  c #E97C36",
"s  c #E8743A",
"d  c #E97B39",
"f  c #E76643",
"g  c #E86741",
"h  c #E66A44",
"j  c #E86943",
"k  c #E66549",
"l  c #E66C49",
"z  c #E86D4B",
"x  c #E87743",
"c  c #E87546",
"v  c #E6724E",
"b  c #E67454",
"n  c #E77757",
"m  c #E7775A",
"M  c #E67B5E",
"N  c #E77E62",
"B  c #EA8500",
"V  c #EC8A00",
"C  c #F1AB00",
"Z  c #F3B502",
"A  c #F5BE00",
"S  c #F1AC16",
"D  c #F4BB1B",
"F  c #EB862A",
"G  c #EA8437",
"H  c #EB8935",
"J  c #EA853A",
"K  c #EC8C3A",
"L  c #EF9B33",
"P  c #ED953B",
"I  c #EE9A3C",
"U  c #F1AE23",
"Y  c #F2AF2D",
"T  c #F2B124",
"R  c #F3B82A",
"E  c #EFA33D",
"W  c #F0A634",
"Q  c #F0A739",
"!  c #F0AB3E",
"~  c #F2B334",
"^  c #F4BC32",
"/  c #F2B23A",
"(  c #F6C301",
")  c #F6C30C",
"_  c #F6C513",
"`  c #F5C31C",
"'  c #F7C819",
"]  c #F5C523",
"[  c #F7C824",
"{  c #F6C42C",
"}  c #F6C92D",
"|  c #F7C736",
" . c #F6C833",
".. c #F7C83B",
"X. c #F6CA3B",
"o. c #EA8543",
"O. c #EC8E41",
"+. c #ED9343",
"@. c #EE9D42",
"#. c #EC954A",
"$. c #EE9B4A",
"%. c #EEA242",
"&. c #EFA843",
"*. c #EFA34A",
"=. c #F0AB42",
"-. c #F2B441",
";. c #F3BC43",
":. c #F4BE4A",
">. c #EEA959",
",. c #F0AB50",
"<. c #F1B856",
"1. c #E6856C",
"2. c #E8846C",
"3. c #E78B73",
"4. c #E98B74",
"5. c #E88979",
"6. c #E7937D",
"7. c #E8927F",
"8. c #F6C544",
"9. c #F7CC45",
"0. c #F8CB44",
"q. c #F5C34B",
"w. c #F7CD4C",
"e. c #F8CE4B",
"r. c #F7D149",
"t. c #F8D14B",
"y. c #F7CC54",
"u. c #F7CF5C",
"i. c #F7D155",
"p. c #F8D258",
"a. c #F5CE68",
"s. c #F7D161",
"d. c #F8D361",
"f. c #F6D26D",
"g. c #F8D56D",
"h. c #F5CE78",
"j. c #F6D373",
"k. c #F6D67A",
"l. c #F8D87B",
"z. c #E88C81",
"x. c #E99582",
"c. c #E79884",
"v. c #EA9D8C",
"b. c #EAA08F",
"n. c #F0BA89",
"m. c #EBA494",
"M. c #EBAA9C",
"N. c #ECAEA2",
"B. c #ECB1A5",
"V. c #EEB6AA",
"C. c #EFB8AD",
"Z. c #EFBDB3",
"A. c #F0BFB5",
"S. c #F6D587",
"D. c #F8D984",
"F. c #F7DB8B",
"G. c #F8DC8C",
"H. c #F7DE95",
"J. c #F8DE92",
"K. c #F4D19F",
"L. c #F9E095",
"P. c #F9E19C",
"I. c #EFC0B6",
"U. c #EFC3BA",
"Y. c #F0C4BC",
"T. c #F8E3A5",
"R. c #F9E5AA",
"E. c #F9E5AB",
"W. c #FAE7B2",
"Q. c #FAE9B4",
"!. c #FAEAB9",
"~. c #EFCAC2",
"^. c #F1CCC4",
"/. c #F2CFC8",
"(. c #F2D3CC",
"). c #F3D7D1",
"_. c #F4DAD4",
"`. c #F5DED8",
"'. c #FBEEC5",
"]. c #FBEFC9",
"[. c #FBF1CB",
"{. c #F6E3DD",
"}. c #FCF4D3",
"|. c #FDF7DC",
" X c #FEF8DF",
".X c #F7E6E2",
"XX c #F8E6E2",
"oX c #F7E9E5",
"OX c #F8EAE6",
"+X c #F9EDEA",
"@X c #FDF7E0",
"#X c #FEFAE3",
"$X c #FAF1ED",
"%X c #FEFCEA",
"&X c #FBF5F2",
"*X c #FCF9F6",
"=X c None",
/* pixels */
"=X=X=X=X=X=X=X=X=X=X=X=X=X=X=X=X=X=X=X=X=X=X=X=X=X=X=X=X=X=X=X=X=X=X=X=X=X=X=X=X=X=X=X=X=X=X=X=X=X=X=X=X=X=X=X=X=X=X=X=X=X=X=X=X",
"=X=X=X=X=X=X=X=X=X=X=X=X=X=X=X=X=X=X=X=X=X=X=X*X`.$X=X=X=X=X=X=X=X=X=X=X=X=X=X=X=X=X=X=X=X=X=X=X=X=X=X=X=X=X=X=X=X=X=X=X=X=X=X=X",
"=X=X=X=X=X=X=X=X=X=X=X=X=X=X=X=X=X=X=X=X=X=X=X&X@ Z.=X=X=X=X=X=X=X=X=X=X=X=X=X=X=X=X=X=X=X=X=X=X=X=X=X=X=X=X=X=X=X=X=X=X=X=X=X=X",
"=X=X=X=X=X=X=X=X=X=X=X=X=X=X=X=X=X=X=X=X=X=X=X*X.X*X=X=X=X=X=X=X=X=X=X=X=X=X=X=X=X=X=X=X=X=X=X=X=X=X=X=X=X=X=X=X=X=X=X=X=X=X=X=X",
"=X=X=X=X=X=X=X=X=X=X=X=X=X=X=X=X=X=X=X=X=X=X=X=X=XoX).=X=X=X=X=X=X=X=X=X=X=X=X=X=X=X=X=X=X=X=X=X=X=X=X=X=X=X=X=X=X=X=X=X=X=X=X=X",
"=X=X=X=X=X=X=X=X=X=X=X=X=X=X=X=X=X=X=X=X=X=X=X=X=XM.h *X=X=X=X=X=X=X=X=X=X=X=X=X=X=X=X=X=X=X=X=X=X=X=X=X=X=X=X=X=X=X=X=X=X=X=X=X",
"=X=X=X=X=X=X=X=X=X=X=X=X=X=X=X=X=X=X=X=X=X=X=X=X=XN.O 1._.=X=X=X=X=X=X=X=X=X=X=X=X=X=X=X=X=X=X=X=X=X=X=X=X=X=X=X=X=X=X=X=X=X=X=X",
"=X=X=X=X=X=X=X=X=X=X=X=X=X=X=X=X=X=X=X=X=X=X=X=X=X_.m.O (.=X=X=X=X=X=X=X=X=X=X=X=X=X=X=X=X=X=X=X=X=X=X=X=X=X=X=X=X=X=X=X=X=X=X=X",
"=X=X=X=X=X=X=X=X=X=X=X=X=X=X=X=X=X=X=X=X=X=X=X=X=X=X&X0 ).=X*X=X=X=X=X=X=X=X=X=X=X=X=X=X=X=X=X=X=X=X=X=X=X=X=X=X=X=X=X=X=X=X=X=X",
"=X=X=X=X=X=X=X=X=X=X=X=X=X=X=X=X=X=X=X=X=X=X=X=X=X=X*X$X*X=X=X=X=X=X=X=X=X=X=X=X=X=X=X=X=X=X=X=X=X=X=X=X=X=X=X=X=X=X=X=X=X=X=X=X",
"=X=X=X=X=X=X=X=X=X=X=X=X=X=X=X=X=X=X=X=X=X=X=X=X=X=X=X=X=X=X=X=X=X=X=X=X=X=X=X=X=X=X=X=X=X=X=X=X=X=X=X=X=X=X=X=X=X=X=X=X=X=X=X=X",
"=X=X=X=X=X=X=X=X=X=X=X=X=X=X=X=X=X=X=X=X=X=X=X=X=X=X=X*X=X=X=X=X=X=X=X=X=X=X=X=X=X=X=X=X=X=X=X=X=X=X=X=X=X=X=X=X=X=X=X=X=X=X=X=X",
"=X=X=X=X=X=X=X=X=X=X=X=X=X=X=X=X=X=X=X=X=X=X=X=X=X=X=X=X=X=X=X=X=X=X=X=X=X=X=X=X=X=X=X=X=X=X=X=X=X=X=X=X=X=X=X=X=X=X=X=X=X=X=X=X",
"=X=X=X=X=X=X=X=X=X=X=X=X=X=X=X=X=X=X=X=X=X=X=X=X=X=X=X=X^.Z.=X=X=X=X=X=X=X=X=X=X=X=X=X=X=X=X=X=X=X=X=X=X=X=X=X=X=X=X=X=X=X=X=X=X",
"=X=X=X=X=X=X=X=X=X=X=X=X=X=X=X=X=X=X=X=X=X=X=X=X=X=X=X=XM.1.$XOX$X=X=X=X=X=X=X=X=X=X=X=X=X=X=X=X=X=X=X=X=X=X=X=X=X=X=X=X=X=X=X=X",
"=X=X=X=X=X=X=X=X=X=X=X=X=X=X=X=X=X=X=X=X=X=X=X=X=X=X=X=X=X{.u % m.=X=X=X=X=X=X=X=X=X=X=X=X=X=X=X=X=X=X=X=X=X=X=X=X=X=X=X=X=X=X=X",
"=X=X=X=X=X=X=X=X=X=X=X=X=X=X=X=X=X=X=X=X=X=X=X=X=X=X=X=X=X{.@ % m M.+X=X=X=X=X=X=X=X=X=X=X=X=X=X=X=X=X=X=X=X=X=X=X=X=X=X=X=X=X=X",
"=X=X=X=X=X=X=X=X=X=X=X=X=X=X=X=X=X=X=X=X=X=X=X=X=X=X=X=X=XOX6.m > # {.=X=X=X=X=X=X=X=X=X=X=X=X=X=X=X=X=X=X=X=X=X=X=X=X=X=X=X=X=X",
"=X=X=X=X=X=X=X=X=X=X=X=X=X=X=X=X=X=X=X=X=X=X=X=X=X=X=X=X=X=X=Xm.% w oX=X=X=X=X=X=X=X=X=X=X=X=X=X=X=X=X=X=X=X=X=X=X=X=X=X=X=X=X=X",
"=X=X=X=X=X=X=X=X=X=X=X=X=X=X=X=X=X=Xv.U.=X=X=X=X=X=X=X=X=X=X=Xx.X l 3.U.=X=X=X=X=X=X=X=X=X=X=X=X=X=X=X=X=X=X=X=X=X=X=X=X=X=X=X=X",
"=X=X=X=X=X=X=X=X=X=X=X=X=X=X=X=X=X=Xv.U.=X=X=X=X=X=X=X=X=X=X=XU.1.h   m.=X=X=X=X=X=X=X=X=X=X=X=X=X=X=X=X=X=X=X=X=X=X=X=X=X=X=X=X",
"=X=X=X=X=X=X=X=X=X=X=X=X=X=X=X=X=X=X=X=X=X=X=X=X=X=X=X=X=X=X=X=X`.; % B.=X=X=X=X=X=X=X=X=X=X=X=X=X=X=X=X=X=X=X=X=X=X=X=X=X=X=X=X",
"=X=X=X=X=X=X=X=X=X=X=X=X=X=X=X=X{.3.$X=X=X=X=X=X=X=X=X=X=X=X*X=X`.* 4 n x.+X=X=X=X=X=X=X=X=X=X=X=X=X=X=X=X=X=X=X=X=X=X=X=X=X=X=X",
"=X=X=X=X=X=X=X=X=X=X=X=X=X=X=X.XN.# OX=X=X=X=X=X=X=X=X=X=X=X=X=X`.% y > * +X=X*X=XOX(.=X=X=X=X=X=X=X=X=X=X=X=X=X=X=X=X=X=X=X=X=X",
"=X=X=X=X=X=X=X=X=X=X=X=X=X=X*X1.# n OX=X=X=X=X=X=X=X=X=X=X=X=X=X`.* t 4 g +X=X*X=XV.* &X=X=X=X=X=X=X=X=X=X=X=X=X=X=X=X=X=X=X=X=X",
"=X=X=X=X=X=X=X=X=X=X=X=X=X{.1.w b.$X*X=X=X=X=X=X=X=X=X=X=X=X=X=X{.% t 4 t +X=X*X=XZ.O N (.=X=X=X=X=X=X=X=X=X=X=X=X=X=X=X=X=X=X=X",
"=X=X=X=X=X=X=X=X=X=X=X=X=X_.$ # N.=X=X=X=X=X=X=X=X=X=X=X=X=X=X=X`.* t 4 t +X=X=X=X{.M.O ~.=X=X=X=X=X=X=X=X=X=X=X=X=X=X=X=X=X=X=X",
"*X*X=X=X=X=X=X=X=X=X=X*X=X`.w $ M.=X=X=X=X=X=X=X=X=X=X=X=X=X=X=X).* t 4 t .X=X=X=X=X*Xu ~.=X=X=X=X=X=X=X=X=X=X=X=X=X=X=X=X=X=X=X",
"(.n *X=X=X=X=X=X=X=X=X*X=X.X= $ M.=X=X=X=X=X=X=X=X=X=X=X=X=X=XM.4 y 4 w f 4 I.=X=X=X=X$X=X=X=X=X=X=X=X=X=X=X=X=X=X=X=X=X=X=X=X=X",
"^.O B.{.=X=X=X=X=X=X=X=X_.m.t $ N.=X=X=X=X=X=X=X=X=X=X=X=X=X=Xv.# g 0 7 y + V.=X*X=X=X=X`.Z.I.OX=X=X=X=X=X=X=X=X=X=X=X=X=X=X=X=X",
"(.v O Z.=X=X=X=X=X=X=X=Xx.  z % m.&X*X=X=X=X=X=X=X=X=X=X=X=X=Xv.$ g w w f $ V.=X=X=X=X=XN.  X /.=X=X=X=X=X=X=X=X=X=X=X=X=X=X=X=X",
"=X$X% C.=X=X=X=X=X=X=X=Xm.% h t 7 n +X=X=X=X=X=X=X=X=X=X=X=X=Xm.$ g 4 w j # V.=X=X=X=X=XN.+ 2 `.=X*X=X=X=X=X=X=X=X=X=X=X=X=X=X=X",
"=X=X/.oX=X=X=X=X=X=X=X=Xm.# g t ; 2 +X=X=X=X=X=X=X=X=X=X=X+XV.N ; t 7 w g # C.=X=X=X=X=X.XZ.4 x.^.=X=X=X=X=X=X=X=X=X=X=X=X=X=X=X",
"=X=X=X*XOX=X=X=X=X=X*X+Xv.% g t 4 h _.*X=X=X=X=X=X=X=X=X=XXX@ 2 w 7 w w g # C.=X=X=X=X*X=X&Xu + 2.OX*X=X=X=X=X=X=X=X=X=X=X=X=X=X",
"=X=X=XZ.h *X=X=X=X=XXX2 t 7 7 w 0 j @ B.=X=X=X=X=X=X=X*X=XOX2 7 7 w w 7 g # C.=X=X=X=X*X=X+X2 w f % `.=X=X=X=X=X=X=X=X=X=X=X=X=X",
"=X*X=XZ.# m.`.=X=X=XXX+ 2 w 7 7 7 h @ Z.=X=X=X=X=X=X=X=X(.6.8 a a 6 w w g # C.=X=X=X=X=X=X+X4 7 t $ XX=X=X=X=X=X=X{.m.*X=X=X=X=X",
"=X=X=X(.3.o Y.=X*X=X+X6.n 2 w r e g $ m.oX*X=X=X=X=X*X.X6.O y K P r w w g # C.=X=X=X=X=X=X+X4 7 t * U.$X=X=X=X=X+XN.$ $X=X=X=X=X",
"=X=X=X=X&X0 ^.=X=X=X=X=Xm.$ j K G 3 w > u *X=X=X=X=X+X: w h 3 K I P r 3 g $ C.=X=X=X=X=X=X+X2 w w t $ v.=X=X=X*X1.# v &X=X=X=X=X",
"=X=X=X=X&Xh m V.*X=X=X=Xv.o f P I G r 4 t 5.(.=X=X^.3.t 4 w 7 e a I e 6 g # A.=X=X*X=X*X=X$X2 w 4 t $ v.=X=X=X=XN v..X*X=X=X=X=X",
"=X=X=X=X&Xn + N *X=X=X=XU.2.t G K I r 8 g X A.=X=XN.. f w 7 w 3 i P d e t * m.{.=X=X=X=X$X^.w 7 7 t % m.=X=X$X_.u V.=X=X=X=X=X=X",
"=X=X=X=X&Xn $ 4.*X=X=X=X=X{.* 3 s P e 6 y % U.=X=XV.% y 4 w 7 7 p P I G 7 h * : $X=X*X=XN.o y 7 7 t $ m.=X=X~.  # V.=X=X=X=X=X=X",
"=X=X=X=X&Xl ; v 1.`.=X*X=X`.* 6 a I P p 6 w n m.=XI.@ g 3 w K e r I I K w w 7 l N _.=Xv.n t 6 G G t % v.=X=X*X$X.X$X=X=X=X=X=X=X",
"=X=X=X=X&Xh 2 g   (.=X*X=X`.* 6 x K P K e y % 2 (.b.% t r a I p r P @.K 7 w w t + m./.% * u p K P 8 % m.=X=X$X_.=X=X=X=X=X=X=X=X",
"=X=X=X=X&Xl 2 g % ).=X=X=X`.* e t 7 K I P e t y $ ; t 7 K I I r i I I J 3 w 7 w g > % g 8 e L I K t % v.*X=X/.o oX=X=X=X=X=X=X=X",
"=X=X=X=X$Xk q #.# ).=X*X=X`.: w 7 8 ;.-.H w 7 7 t 7 e K P P I K E 8.I P K e 0 w w w e 6 d P P d 7 w w h M $X).X n ^.=X=X=X=X=X=X",
"=X=X=X=X*Xk q $.# _.=X*X=X{.- w e a / -.! a p d w 7 e P I P P K ! 9.-.E P e 6 w w 7 w p K P P G e w t > $ OX$XN.* 3.(.*X=X=X=X=X",
"=X=X=X=X+Xl F #.$ ~.=X*X=X`.* 4 s I K -.w.E L P w 0 r P P P I P &.w.9.;.P r 7 w 7 7 r I P I P I K 7 w 4 t {.=X=Xx.$ : OX=X*X=X=X",
"=X=X=XY.u O.P K e t v.=X=X`.* 7 s I ;.| ) 8.-.K w 3 w P I P P -...) 0.;.H P a 7 7 d P H -.8.P I P 7 w 7 l # N.=X*XU.> t (.=X=X=X",
"=X=X=XY.# +.=.! 8 # 4.=X=X_.* 7 p @.{ l.T.i./ K G d G P P P P ^ f.R.p.R -.I J 4 6 d I -.-.! P I K w w 2 > m.`.=X=X/.# * x.~.*X=X",
"=X*X*XC., K ;.q.s * x.=X=X`.* 7 p $.A T.#Xs.~ P I I I P I I @.D G.%XF.0.e.E d w w J E w.-.P @.@.K 7 8 u N $X=X*X=X~.# l $ e *X=X",
"=X&X1.q $.K Y [ e.B 5.*X=X{.* 7 p @.A P.|.9.S O.I P P K -.9.y.( k.|.@XW.] &.a 7 K / 9.( X.q.P P K t % c.*X*X=X*X=X(.@ h 2 N *X=X",
"=X=Xm < *.U F.R.t.B z.=X(.c.w 3 i #.A P.@X!.S.Y @.P E -.8.0.` J.'.|.%X!.` @.J G +.~ y.Q.D.( ;.E G y $ m.=X=X=X=XU.x.= t = M =X=X",
"*X`.N 1 *.( !.|.r.B 1.$X4.+ c w a &._ P.#X%XR.( $.P E 9.0.y.s.[.#X|.#X!.] =.I I P Y u.}.T.i.r./ G t % 6.+X*X*X.Xg $ t w > m {.*X",
"/.# 8 a %.) Q.}.r.H 5 0 8 x P P Q y.A H.#X@XT._ $.P I y.( f.|.|.@X X#XQ.( e.-.P K -.i.( Q.}.0.! G 0 8 4 % &X{.$ j y 7 7 7 t $ ^.",
"/.# o.K %.( Q.}.' ^ @.4 d K P P Q t.T.].@X#XR._ #.E 8.( J.]. X X X X@X}.W.d.~ P P I &.( Q.}._ W K K K G F b.x.& 7 6 7 G s w $ ^.",
"/.# $.@.@.) Q.}.k.p.8.6 K I P @.! w.}.%X|.%XR._ &.;.i.f.].%X|. X X X@X#X#Xg.T +.I I ,.a.!.|.l.<.L I P I I , , o.J d r I J 8 % /.",
"/.% $.I @.] E.#X#XJ.S 8 H I P q.X.} [.#X|.#XT.( y.| d.|. X|. X X@X X X#X|.g.T +.+.U i.}.#X|.#XL.` *.P P I #.&.} ' ~ P I J 7 + ~.",
"^.o c J @.] E.#X#XH.R J K P P ^ l.'.|. X X X}.Q.y.} g.|. X X#X X X X#X'.k.i...:.A S.[.|.@X@X#XG.Z F H P +.C j.'.[.K.V x 0 b (.&X",
"`.6.k 9 +.] E.%X@XF.] ! ! E P D L.#X X X X|.#X|.u.` g.|. X X X X X X#X!.A 0.0.w.g.!.#X|.@X X@XR.h.n.>.W &.a.W.#X}.K.B g % M =X=X",
"=X*XM $ c ` R.#X@XJ._ 0.w.q.#.^ G.#X X X X X#X[.y._ f.|.@X X X X X X#X!._ w. .w.|.#X X X X@X@X@X#X#XF.} X.[.#X|.p.Z K e * n *X=X",
"=X*X$XN.1 { Q.$X X[.].[.j.A ^ A D.#X X X X X X|.].].[. X X X X X@X@Xl.G.[.].].].|. X X X X X X X X#Xf.p.[. X'.f.,.@.$.* B.+X=X=X",
"=X=X=XU.% ~ S.!.|.#X#X#XR.G.L.G.R.#X X X X X X X#X#X#X X X X X X#X#XL.R.%X#X#X@X X|. X X X X X X X#XT.R.#X%XW.( L H o.@ ~.=X=X=X",
"=X=X=XZ.* #.V >.|. X|.|.#X#X@X#X#X X X|. X X X X|.|. X X X X X|.|.@X#X#X|.|. X X X X X X X X X#X X X@X@X|.#XQ.| E G k # U.=X=X=X",
"=X=X=X*X+X$X$X%X*X=X*X=X*X*X=X=X*X=X*X=X*X=X*X=X*X=X*X=X*X*X=X=X*X=X*X=X*X=X*X=X=X*X=X*X*X=X*X=X*X=X*X=X*X=X*X%X$X$X+X+X*X=X=X=X"
};
