/* XPM */
static char *result[] = {
/* columns rows colors chars-per-pixel */
"64 64 56 1 ",
"  c #181585",
". c #181586",
"X c #181587",
"o c #1A1786",
"O c #1A1787",
"+ c #181588",
"@ c #181589",
"# c #191793",
"$ c #1A1893",
"% c #1A1894",
"& c #1A1994",
"* c #1A1895",
"= c #1A1995",
"- c #1B1995",
"; c #27278B",
": c #1D1CA0",
"> c #1D1CA2",
", c #2420CB",
"< c #2420CC",
"1 c #2420CD",
"2 c #2522D1",
"3 c #2522D2",
"4 c #2523D2",
"5 c #2625D7",
"6 c #292EE4",
"7 c #292EE5",
"8 c #2A2FE7",
"9 c #2B31F1",
"0 c #2C31F2",
"q c #2C32F2",
"w c #2C32F3",
"e c #2C30F4",
"r c #2D32F9",
"t c #2D33F9",
"y c #2D33FA",
"u c #2E35FD",
"i c #2D34FF",
"p c #2E35FE",
"a c #2E34FF",
"s c #2E35FF",
"d c #2F36FF",
"f c #3239FF",
"g c #323AFF",
"h c #323BFF",
"j c #363FFF",
"k c #4A59FF",
"l c #4E5DFF",
"z c #4E5EFF",
"x c #4E5FFF",
"c c #4F5FFF",
"v c #5162FF",
"b c #5263FF",
"n c #5264FF",
"m c #5364FF",
"M c #8B9FAE",
"N c None",
/* pixels */
"NNXXXXXXXXXXXXXXXXXXXXXXXXXXXXXXXXXXXXXXXXXXXXXXXXXXXXXXXXXXXXNN",
"NNXXXXXXXXXXXXXXXXXXXXXXXXXXXXXXXXXXXXXXXXXXXXXXXXXXXXXXXXXXXXNN",
"XXXXXX....................................................XXXXXX",
"XXXXX@%--------------------------------------------------%@XXXXX",
"XXXX $7w000000000000000000000000000000000000000000000000w7$ XXXX",
"XXX@$:8q000000000000000000000000000000000000000000000000q8:$@XXX",
"XX.%78:%**=-&&&&&&&&&&&&&&&&&&&&&&&&&&&&&&&&&&&&&&&&-=**%:87%.XX",
"XX.-wq%o;;O+$&&&&&&&&&&&&&&&&&&&&&&&&&&&&&&&&&&&&&&$+O;;o%qw-.XX",
"XX.-00*;MM;#6099999999999999999999999999999999999906#;MM;*00-.XX",
"XX.-00*;MM;*0ssssssssssssssssssssssssssssssssssssss0*;MM;*00-.XX",
"XX.-00=O;;o%9ssssssssssssssssssssssssssssssssssssss9%o;;O=00-.XX",
"XX.-00-+#*%>qssssssssssssssdghgggggggggggggghgdssssq>%*#+-00-.XX",
"XX.-00&$609qussssssssssssssgkzzzzzzzzzzzzzzzzkgisssuq906$&00-.XX",
"XX.-00&&0ssssssssssssssssssgkzzzzcbbbbbbbbbbmzjghgdssss0&&00-.XX",
"XX.-00&&9ssssssssssssssssssdghgggjzmbbbbbbbbbvzlzkfasss9&&00-.XX",
"XX.-00&&9sssssssssssssssssssssssigkzlzvbbbbbbbbbmzjfdss9&&00-.XX",
"XX.-00&&9ssssssssssssssssssssssssdghgjzmbbbbbbbbbvzkgss9&&00-.XX",
"XX.-00&&9sssssssssssssssssssssssssssigkzlzvbbbbbbbmzhss9&&00-.XX",
"XX.-00&&9ssssssssssssssssssssssssssssdghgjxnbbbbbbbzgss9&&00-.XX",
"XX.-00&&9sssssssssssssssssssssssssssssssigkxvbbbbbbzgss9&&00-.XX",
"XX.-00&&9ssssssssssssssssssssssssssssssssdfjxnbbbbbzgss9&&00-.XX",
"XX.-00&&9sssssssssssssssssssssssssssssssssafkxvbbbbzgss9&&00-.XX",
"XX.-00&&9ssssssssssssssssssssssssssssssssssdgjzbbbbzgss9&&00-.XX",
"XX.-00&&9sssssssssssssssssssssssssssssssssssiglbbbbzgss9&&00-.XX",
"XX.-00&&9sssssssssssssssssssssssssssssssssssshzmbbbzgss9&&00-.XX",
"XX.-00&&9ssssssssssssssssssssssssssssssssssssgkzvbbzgss9&&00-.XX",
"XX.-00&&9ssssssssssssssssssssssssssssssssssssdgjzbbzgss9&&00-.XX",
"XX.-00&&9sspyypsssssssssssssssssssssssssssssssiglbbzgss9&&00-.XX",
"XX.-00&&9ssy55ysssssssssssssssssssssssssssssssshzmbzgss9&&00-.XX",
"XX.-00&&9ssr22rssssssssssssssssssssssssssssssssgkzbzgss9&&00-.XX",
"XX.-00&&9sst33tssssssssssssssssssssssssssssssssdgjczgss9&&00-.XX",
"XX.-00&&9sst33tsssssssssssssssssssssssssssssssssigzzgss9&&00-.XX",
"XX.-00&&9sst33tssssssssssssssssssssssssssssssssssgzzgss9&&00-.XX",
"XX.-00&&9sst32eypssssssssssssssssssssssssssssssssgzzgss9&&00-.XX",
"XX.-00&&9sst3<25ysssssssssssssssssssssssssssssssshzzhss9&&00-.XX",
"XX.-00&&9sst3<,3rssssssssssssssssssssssssssssssssgkkgss9&&00-.XX",
"XX.-00&&9sst3<<4tssssssssssssssssssssssssssssssssdggdss9&&00-.XX",
"XX.-00&&9sst3<<2eypssssssssssssssssssssssssssssssssssss9&&00-.XX",
"XX.-00&&9sst3<<125yssssssssssssssssssssssssssssssssssss9&&00-.XX",
"XX.-00&&9sst3<<<,3rssssssssssssssssssssssssssssssssssss9&&00-.XX",
"XX.-00&&9sst3<<<<4tssssssssssssssssssssssssssssssssssss9&&00-.XX",
"XX.-00&&9sst3<<<<2eypssssssssssssssssssssssssssssssssss9&&00-.XX",
"XX.-00&&9sst3<<<<125yssssssssssssssssssssssssssssssssss9&&00-.XX",
"XX.-00&&9sst3<<<<<,2eypssssssssssssssssssssssssssssssss9&&00-.XX",
"XX.-00&&9sst3<<<<<<125yssssssssssssssssssssssssssssssss9&&00-.XX",
"XX.-00&&9sst3<<<<<<<,2etrypssssssssssssssssssssssssssss9&&00-.XX",
"XX.-00&&9ssr3,<<<<<<<12435yssssssssssssssssssssssssssss9&&00-.XX",
"XX.-00&&9ssy521<<<<<<<<<,2etrypssssssssssssssssssssssss9&&00-.XX",
"XX.-00&&9sspye2,<<<<<<<<<12435yssssssssssssssssssssssss9&&00-.XX",
"XX.-00&&9ssssy521<<<<<<<<<<<,2etttrypssssssssssssssssss9&&00-.XX",
"XX.-00&&0sssspye2,<<<<<<<<<<<<233325yssssssssssssssssss0&&00-.XX",
"XX.-00&$609qussy53333333333333333325yssssssssssssssuq906$&00-.XX",
"XX.-00-+#*%>qsspyrttttttttttttttttrypssssssssssssssq>%*#+-00-.XX",
"XX.-00=O;;o%9ssssssssssssssssssssssssssssssssssssss9%o;;O=00-.XX",
"XX.-00*;MM;*0ssssssssssssssssssssssssssssssssssssss0*;MM;*00-.XX",
"XX.-00*;MM;#6099999999999999999999999999999999999906#;MM;*00-.XX",
"XX.-wq%o;;O+$&&&&&&&&&&&&&&&&&&&&&&&&&&&&&&&&&&&&&&$+O;;o%qw-.XX",
"XX.%78:%**=-&&&&&&&&&&&&&&&&&&&&&&&&&&&&&&&&&&&&&&&&-=**%:87%.XX",
"XXX@$:8q000000000000000000000000000000000000000000000000q8:$@XXX",
"XXXX $7w000000000000000000000000000000000000000000000000w7$ XXXX",
"XXXXX@%--------------------------------------------------%@XXXXX",
"XXXXXX....................................................XXXXXX",
"NNXXXXXXXXXXXXXXXXXXXXXXXXXXXXXXXXXXXXXXXXXXXXXXXXXXXXXXXXXXXXNN",
"NNXXXXXXXXXXXXXXXXXXXXXXXXXXXXXXXXXXXXXXXXXXXXXXXXXXXXXXXXXXXXNN"
};
