/* XPM */
static char *_1712ce26ce643a6f9fc452c7754b967FwCfqbAwspea0Y3i[] = {
/* columns rows colors chars-per-pixel */
"64 64 189 2 ",
"   c #005F00",
".  c #007500",
"X  c #00611F",
"o  c #005723",
"O  c #1F4D39",
"+  c #21513A",
"@  c #275E3B",
"#  c #25583C",
"$  c #197827",
"%  c #2B623F",
"&  c #246938",
"*  c #2E6B3E",
"=  c #306F3C",
"-  c #287536",
";  c #32733D",
":  c #397D3E",
">  c #2C6440",
",  c #306743",
"<  c #336B41",
"1  c #2E7143",
"2  c #347342",
"3  c #397542",
"4  c #377B40",
"5  c #397D41",
"6  c #3C754D",
"7  c #008E00",
"8  c #188B02",
"9  c #009500",
"0  c #149900",
"q  c #299A05",
"w  c #218A19",
"e  c #01A800",
"r  c #2EA00D",
"t  c #39AC0B",
"y  c #3AAD11",
"u  c #2B8B27",
"i  c #308F27",
"p  c #329828",
"a  c #399B2B",
"s  c #378837",
"d  c #3D8A3F",
"f  c #3A9135",
"g  c #3E9339",
"h  c #3AA228",
"j  c #41B31E",
"k  c #42953C",
"l  c #41993B",
"z  c #45B02A",
"x  c #48B82A",
"c  c #48A936",
"v  c #49A23E",
"b  c #4DAD3B",
"n  c #50AF3D",
"m  c #4CB339",
"M  c #56BC3E",
"N  c #54C82A",
"B  c #58C43C",
"V  c #2D8D47",
"C  c #3B8142",
"Z  c #3F8C42",
"A  c #428445",
"S  c #418C43",
"D  c #48864A",
"F  c #468A4C",
"G  c #469542",
"H  c #479A42",
"J  c #499B43",
"K  c #4A944A",
"L  c #4E9B4A",
"P  c #4DA342",
"I  c #51AF40",
"U  c #53A34E",
"Y  c #55AA4B",
"T  c #59AC4F",
"R  c #56B344",
"E  c #59B547",
"W  c #57BC45",
"Q  c #5BBE46",
"!  c #5BB54B",
"~  c #5DBC4C",
"^  c #5CAD53",
"/  c #5DB652",
"(  c #5EB953",
")  c #61AF5A",
"_  c #62B757",
"`  c #61BC52",
"'  c #63B45A",
"]  c #66B95B",
"[  c #69BB5D",
"{  c #569A63",
"}  c #6C8979",
"|  c #6E9C75",
" . c #70937B",
".. c #739C7C",
"X. c #5FA366",
"o. c #61A567",
"O. c #62AC64",
"+. c #64B363",
"@. c #68B865",
"#. c #6DBB65",
"$. c #6FBF68",
"%. c #71BD67",
"&. c #72BE69",
"*. c #69AB73",
"=. c #74A675",
"-. c #7BAB7B",
";. c #6DB472",
":. c #79B376",
">. c #75BC72",
",. c #7EB37B",
"<. c #5EC545",
"1. c #64C74B",
"2. c #63C151",
"3. c #6BCB56",
"4. c #66C15A",
"5. c #6BC35D",
"6. c #71CB5F",
"7. c #6DD359",
"8. c #73D45E",
"9. c #6DC461",
"0. c #6EC06B",
"q. c #73C26B",
"w. c #78C66B",
"e. c #76CA6A",
"r. c #74D461",
"t. c #7CD66B",
"y. c #7ED96C",
"u. c #7CC375",
"i. c #7ACB73",
"p. c #7FC278",
"a. c #7ED371",
"s. c #80B77D",
"d. c #82BD79",
"f. c #82CB73",
"g. c #81C57A",
"h. c #87CB79",
"j. c #8BCC7F",
"k. c #82D973",
"l. c #8BD57D",
"z. c #7AA683",
"x. c #80B083",
"c. c #8DB992",
"v. c #96ACA1",
"b. c #9AB7A2",
"n. c #A9BEB0",
"m. c #87CC80",
"M. c #8BCD83",
"N. c #8FD586",
"B. c #94D58A",
"V. c #96DA8C",
"C. c #99DB8D",
"Z. c #97C59D",
"A. c #9CD595",
"S. c #9BDA94",
"D. c #9DD29B",
"F. c #A1DB99",
"G. c #A9E69E",
"H. c #A7ED9A",
"J. c #A5CDA1",
"K. c #A8CFA6",
"L. c #AAD4A5",
"P. c #A7DAA1",
"I. c #ABDCA5",
"U. c #AED8AB",
"Y. c #B5DCAE",
"T. c #AEC9B0",
"R. c #B4CBBA",
"E. c #B7D6B5",
"W. c #B4E5A7",
"Q. c #B6E5AB",
"!. c #B9E5AE",
"~. c #BCE8B1",
"^. c #C1E4BE",
"/. c #C2EDB9",
"(. c #C4F3BD",
"). c #BFDAC4",
"_. c #CBEDC6",
"`. c #CAF5C2",
"'. c #CDF4C8",
"]. c #D0F5CB",
"[. c #DBEBDA",
"{. c #D7F6D3",
"}. c #DBF4D6",
"|. c #DEF3D9",
" X c #E1F5DB",
".X c #E3F2E3",
"XX c #E6FAE1",
"oX c #EDFBEB",
"OX c None",
/* pixels */
"OXOXOXOXOXOXOXOXOXOXOXOXOXOXOXOXOXOXOXOXOXOXOXOXOXOXOXOXOXOXOXOXOXOXOXOXOXOXOXOXOXOXOXOXOXOXOXOXOXOXOXOXOXOXOXOXOXOXOXOXOXOXOXOX",
"OXOXOXOXOXOXOXOXOXOXOXOXOXOXOXOXOXOXOXOXOXOXOXOXOXOXOXOXOXOXOXOXOXOXOXOXOXOXOXOXOXOXOXOXOXOXOXOXOXOXOXOXOXOXOXOXOXOXOXOXOXOXOXOX",
"OXOXOXOXOXOXOXOXOXOXOXOXOXOXOXOXOXOXOXOXOXOXOXOXOXOXOXOXOXOXOXOXOXOXOXOXOXOXOXOXOXOXOXOXOXOXOXOXOXOXOXOXOXOXOXOXOXOXOXOXOXOXOXOX",
"OXOXOXOXOXOXOXOXOXOXOXOXOXOXOXOXOXOXOXOXOXOXOXOXOXOXOXOXOXOXOXOXOXOXOXOXOXOXOXOXOXOXOXOXOXOXOXOXOXOXOXOXOXOXOXOXOXOXOXOXOXOXOXOX",
"OXOXOXOXOXOXOXOXOXOXOXOXOXOXOXOXOXOXOXOXOXOXOXOXOXOXOXOXOXOXOXOXOXOXOXOXOXOXOXOXOXOXOXOXOXOXOXOXOXOXOXOXOXOXOXOXOXOXOXOXOXOXOXOX",
"OXOXOXOXOXOXOXOXOXOXOXOXOXOXOXOXOXOXOXOXOXOXOXOXOXOXOXOXOXOXOXOXOXOXOXOXOXOXOXOXOXOXOXOXOXOXOXOXOXOXOXOXOXOXOXOXOXOXOXOXOXOXOXOX",
"OXOXOXOXOXOXOXOXOXOXOXOXOXOXOXOXOXOXOXOXOXOXOXOXOXOXOXOXOXOXOXOXOXOXOXOXOXOXOXOXOXOXOXOXOXOXOXOXOXOXOXOXOXOXOXOXOXOXOXOXOXOXOXOX",
"OXOXOXOXOXOXOXOXOXOXOXOXOXOXOXOXOXOXOXOXOXOXOXOXOXOXOXOXOXOXOXOXOXOXOXOXOXOXOXOXOXOXOXOXOXOXOXOXOXOXOXOXOXOXOXOXOXOXOXOXOXOXOXOX",
"OXOXOXOXOXOXOXOXOXOXOXOXOXOXOXOXOXOXOXOXOXOXOXOXOXOXOXOXOXOXOXOXOXOXOXOXOXOXOXOXOXOXOXOXOXOXOXOXOXOXOXOXOXOXOXOXOXOXOXOXOXOXOXOX",
"OXOXOXOXOXOXOXOXOXOXOXOXOXOXOXOXOXOXOXOXOXOXOXOXOXOXOXOXOXOXOXOXOXOXOXOXOXOXOXOXOXOXOXOXOXOXOXOXOXOXOXOXOXOXOXOXOXOXOXOXOXOXOXOX",
"OXOXOXOXOXOXOXOXOXOXOXOXOXOXOXOXOXOXOXOXOXOXOXOXOXOXOXOXOXOXOXOXOXOXOXOXOXOXOXOXOXOXOXOXOXOXOXOXOXOXOXOXOXOXOXOXOXOXOXOXOXOXOXOX",
"OXOXOXOXOXOXOXOXOXOXOXOXOXOXOXOXOXOXOXOXOXOXOXOXOXOXOXOXOXOXOXOXOXOXOXOXOXOXOXOXOXOXOXOXOXOXOXOXOXOXOXOXOXOXOXOXOXOXOXOXOXOXOXOX",
"OXOXOXOXOXOXOXOXOXOXOXOXOXOXOXOXOXOXOXOXOXOXOXOXOXOXOXOXOXOXOXOXOXOXOXOXOXOXOXOXOXOXOXOXOXOXOXOXOXOXOXOXOXOXOXOXOXOXOXOXOXOXOXOX",
"OXOXOXOXOXOXOXOXOXOXOXOXOXOXOXOXOXOXOXOXOXOXOXOXOXOXOXOXOXOXOXOXOXOXOXOXOXOXOXOXOXOXOXOXOXOXOXOXOXOXOXOXOXOXOXOXOXOXOXOXOXOXOXOX",
"OXOXOXOXOXOXOXOXOXOXOXOXOXOXOXOXOXOXOXOXOXOXOXOXOXOXOXOXOXOXOXOXOXOXOXOXOXOXOXOXOXOXOXOXOXOXOXOXOXOXOXOXOXOXOXOXOXOXOXOXOXOXOXOX",
"OXOXOXOXOXOXOXOXOXOXOXOXOXOXOXOXOXOXOXOXOXOXOXOXOXOXOXOXOXOXOXOXOXOXOXOXOXOXOXOXOXOXOXOXOXOXOXOXOXOXOXOXOXOXOXOXOXOXOXOXOXOXOXOX",
"OXOXOXOXOXOXOXOXOXOXOXOXOXOXOXOXOXOXOXOXOXOXOXOXOXOXOXOXOXOXOXOXOXOXOXOXOXOXOXOXOXOXOXOXOXOXOXOXOXOXOXOXOXOXOXOXOXOXOXOXOXOXOXOX",
"OXOXOXOXOXOXOXOXOXOXOXOXOXOXOXOXOXOXOXOXOXOXOXOXOXOXOXOXOXoX{.}.{.oXOXOXOXOXOXOXOXOXOXOXOXOXOXOXOXOXOXOXOXOXOXOXOXOXOXOXOXOXOXOX",
"OXOXOXOXOXOXOXOXOXOXOXOXOXOXOXOXOXOXOXOXOXOXOXOXOXOXOXoX{.I.%.w.&.I.{.oXOXOXOXOXOXOXOXOXOXOXOXOXOXOXOXOXOXOXOXOXOXOXOXOXOXOXOXOX",
"OXOXOXOXOXOXOXOXOXOXOXOXOXOXOXOXOXOXOXOXOXOXOXOXOXoX{.I.%.#._ ] / [ &.I.{.oXOXOXOXOXOXOXOXOXOXOXOXOXOXOXOXOXOXOXOXOXOXOXOXOXOXOX",
"OXOXOXOXOXOXOXOXOXOXOXOXOXOXOXOXOXOXOXOXOXOXOXOXoX/.B._ n 1.8.8.G.A.R @.N.(.oXOXOXOXOXOXOXOXOXOXOXOXOXOXOXOXOXOXOXOXOXOXOXOXOXOX",
"OXOXOXOXOXOXOXOXOXOXOXOXOXOXOXOXOXOXOXOXOXOXOXoXF.B.g.c 1.1.B V.~.~.G.! g.N.F.oXOXOXOXOXOXOXOXOXOXOXOXOXOXOXOXOXOXOXOXOXOXOXOXOX",
"OXOXOXOXOXOXOXOXOXOXOXOXOXOXOXOXOXOXOXOXOXOXXXF.[ #.u.[ Q Q c d.L.W.B.@.p.0._ I.oXOXOXOXOXOXOXOXOXOXOXOXOXOXOXOXOXOXOXOXOXOXOXOX",
"OXOXOXOXOXOXOXOXOXOXOXOXOXOXOXOXOXOXOXOXOXXXV.m 5._ g.h.a [ g.q.W.F.9 g.p._ e._ P.oXOXOXOXOXOXOXOXOXOXOXOXOXOXOXOXOXOXOXOXOXOXOX",
"OXOXOXOXOXOXOXOXOXOXOXOXOXOXOXOXOXOXOXOXXXV.P R r.q.#.u.p.p.p.g.u.&.p.u.] 2.t.e.] I.oXOXOXOXOXOXOXOXOXOXOXOXOXOXOXOXOXOXOXOXOXOX",
"OXOXOXOXOXOXOXOXOXOXOXOXOXOXOXOXOXOXOXOX(.W P R / [ #.u.u._ m b R p.V.m.] W 1.y.' #.{.OXOXOXOXOXOXOXOXOXOXOXOXOXOXOXOXOXOXOXOXOX",
"OXOXOXOXOXOXOXOXOXOXOXOXOXOXOXOXOXOXOX XH.t.( v P ~ q.] ,.N.<.3.t.t.e.m.M.] n E #.C./.oXOXOXOXOXOXOXOXOXOXOXOXOXOXOXOXOXOXOXOXOX",
"OXOXOXOXOXOXOXOXOXOXOXOXOXOXOXOXOXOXOX`.7.9.5.9.Y 5.9.0 Q.Q.N t.k.k.k.9.M.g.^ g.u.u.N.{.OXOXOXOXOXOXOXOXOXOXOXOXOXOXOXOXOXOXOXOX",
"OXOXOXOXOXOXOXOXOXOXOXOXOXOXOXOXOXOXXXC.Y f Y 9.[ 5.Y :.[.}.B.a.t.k.t.1._ g.u.g.#./ #.F.XXOXOXOXOXOXOXOXOXOXOXOXOXOXOXOXOXOXOXOX",
"OXOXOXOXOXOXOXOXOXOXOXOXOXOXOXOXOXOX(.~ i ,.,.w 5.9.f :.[..XA.e.i.#.M l.>.&.g.a 6.k.) W (.OXOXOXOXOXOXOXOXOXOXOXOXOXOXOXOXOXOXOX",
"OXOXOXOXOXOXOXOXOXOXOXOXOXOXOXOXOXOX`.<.z.K.K.,.4.9.G p E.~.9.a.q.R h. X[.I.u.n 2.q.' 2.`.OXOXOXOXOXOXOXOXOXOXOXOXOXOXOXOXOXOXOX",
"OXOXOXOXOXOXOXOXOXOXOXOXOXOXOXOXOXXXV.J ,.L.K.M.4.U K @.D.D.>.0.Y v h. XXXI.h.[ I ! ] _ V.XXOXOXOXOXOXOXOXOXOXOXOXOXOXOXOXOXOXOX",
"OXOXOXOXOXOXOXOXOXOXOXOXOXOXOXOXOX'.x F $ -.-./ 9.F X.;.0.q.@.J k G b B.D.( i.i.v P T T W (.OXOXOXOXOXOXOXOXOXOXOXOXOXOXOXOXOXOX",
"OXOXOXOXOXOXOXOXOXOXOXOXOXOXOXOXOX].B A < - - ^ 5.+.;.;.>.O.x.s.k U @.q.@.L 4.9.G H H G 2.`.OXOXOXOXOXOXOXOXOXOXOXOXOXOXOXOXOXOX",
"OXOXOXOXOXOXOXOXOXOXOXOXOXOXOXOXOX_.j 3 + < S n 5.;.*.$.X.. T.U.7 +.u.@.U k 9.5.g G H G 2.`.OXOXOXOXOXOXOXOXOXOXOXOXOXOXOXOXOXOX",
"OXOXOXOXOXOXOXOXOXOXOXOXOXOXOXOXOX^.e D ; G R Q 9.$.*.X.z.T.K.J.E.Z.+.K Z k 5.t.4.T G G W `.OXOXOXOXOXOXOXOXOXOXOXOXOXOXOXOXOXOX",
"OXOXOXOXOXOXOXOXOXOXOXOXOXOXOXOXOX|.i.R R R R R ( 9.o.1  .n.b.T.).Z.Z 5 Z ^ 5.5.9.4.9.4.C. XOXOXOXOXOXOXOXOXOXOXOXOXOXOXOXOXOXOX",
"OXOXOXOXOXOXOXOXOXOXOXOXOXOXOXOXOXOX/.x ! H 5 S R ( F > &   R.).V C C C d ` ` f f ^ 9.r.`.OXOXOXOXOXOXOXOXOXOXOXOXOXOXOXOXOXOXOX",
"OXOXOXOXOXOXOXOXOXOXOXOXOXOXOXOXOXOXY.t A * , & k E H 1 6 { Z.c.2 > 2 : H R a :.:.u d W (.OXOXOXOXOXOXOXOXOXOXOXOXOXOXOXOXOXOXOX",
"OXOXOXOXOXOXOXOXOXOXOXOXOXOXOXOXOXOX Xf.k < o  ...p E U o.*.{ 1 % 2 : H ! l =.[.[.=.J S.XXOXOXOXOXOXOXOXOXOXOXOXOXOXOXOXOXOXOXOX",
"OXOXOXOXOXOXOXOXOXOXOXOXOXOXOXOXOXOXOXW.j = } v.b...k ` 5.' F C 4 J R R G & | [.[.-.m /.OXOXOXOXOXOXOXOXOXOXOXOXOXOXOXOXOXOXOXOX",
"OXOXOXOXOXOXOXOXOXOXOXOXOXOXOXOXOXOXOX}.f.u  .v.v. .k R R n R R R R R R G % X | =.h j.|.OXOXOXOXOXOXOXOXOXOXOXOXOXOXOXOXOXOXOXOX",
"OXOXOXOXOXOXOXOXOXOXOXOXOXOXOXOXOXOXOXOX}.f.8  . .i E k ; J E R R H 4 J R H @ @ l V. XOXOXOXOXOXOXOXOXOXOXOXOXOXOXOXOXOXOXOXOXOX",
"OXOXOXOXOXOXOXOXOXOXOXOXOXOXOXOXOXOXOXOXOX Xf.i : E E ; + = : : 5 2 > s R E A J V.XXOXOXOXOXOXOXOXOXOXOXOXOXOXOXOXOXOXOXOXOXOXOX",
"OXOXOXOXOXOXOXOXOXOXOXOXOXOXOXOXOXOXOXOXOXOX}.f.j I K @ O O + # # # % 2 L I t j.XXOXOXOXOXOXOXOXOXOXOXOXOXOXOXOXOXOXOXOXOXOXOXOX",
"OXOXOXOXOXOXOXOXOXOXOXOXOXOXOXOXOXOXOXOXOXOXOX}.Q.f.q : 3 3 3 2 3 2 5 d r h.Q.}.OXOXOXOXOXOXOXOXOXOXOXOXOXOXOXOXOXOXOXOXOXOXOXOX",
"OXOXOXOXOXOXOXOXOXOXOXOXOXOXOXOXOXOXOXOXOXOXOXOXOX|.Q.h.y z z z z z y h.Q.|.OXOXOXOXOXOXOXOXOXOXOXOXOXOXOXOXOXOXOXOXOXOXOXOXOXOX",
"OXOXOXOXOXOXOXOXOXOXOXOXOXOXOXOXOXOXOXOXOXOXOXOXOXOXOX}.Q.!.!.!.!.!.Q.|.OXOXOXOXOXOXOXOXOXOXOXOXOXOXOXOXOXOXOXOXOXOXOXOXOXOXOXOX",
"OXOXOXOXOXOXOXOXOXOXOXOXOXOXOXOXOXOXOXOXOXOXOXOXOXOXOXOXOXOXOXOXOXOXOXOXOXOXOXOXOXOXOXOXOXOXOXOXOXOXOXOXOXOXOXOXOXOXOXOXOXOXOXOX",
"OXOXOXOXOXOXOXOXOXOXOXOXOXOXOXOXOXOXOXOXOXOXOXOXOXOXOXOXOXOXOXOXOXOXOXOXOXOXOXOXOXOXOXOXOXOXOXOXOXOXOXOXOXOXOXOXOXOXOXOXOXOXOXOX",
"OXOXOXOXOXOXOXOXOXOXOXOXOXOXOXOXOXOXOXOXOXOXOXOXOXOXOXOXOXOXOXOXOXOXOXOXOXOXOXOXOXOXOXOXOXOXOXOXOXOXOXOXOXOXOXOXOXOXOXOXOXOXOXOX",
"OXOXOXOXOXOXOXOXOXOXOXOXOXOXOXOXOXOXOXOXOXOXOXOXOXOXOXOXOXOXOXOXOXOXOXOXOXOXOXOXOXOXOXOXOXOXOXOXOXOXOXOXOXOXOXOXOXOXOXOXOXOXOXOX",
"OXOXOXOXOXOXOXOXOXOXOXOXOXOXOXOXOXOXOXOXOXOXOXOXOXOXOXOXOXOXOXOXOXOXOXOXOXOXOXOXOXOXOXOXOXOXOXOXOXOXOXOXOXOXOXOXOXOXOXOXOXOXOXOX",
"OXOXOXOXOXOXOXOXOXOXOXOXOXOXOXOXOXOXOXOXOXOXOXOXOXOXOXOXOXOXOXOXOXOXOXOXOXOXOXOXOXOXOXOXOXOXOXOXOXOXOXOXOXOXOXOXOXOXOXOXOXOXOXOX",
"OXOXOXOXOXOXOXOXOXOXOXOXOXOXOXOXOXOXOXOXOXOXOXOXOXOXOXOXOXOXOXOXOXOXOXOXOXOXOXOXOXOXOXOXOXOXOXOXOXOXOXOXOXOXOXOXOXOXOXOXOXOXOXOX",
"OXOXOXOXOXOXOXOXOXOXOXOXOXOXOXOXOXOXOXOXOXOXOXOXOXOXOXOXOXOXOXOXOXOXOXOXOXOXOXOXOXOXOXOXOXOXOXOXOXOXOXOXOXOXOXOXOXOXOXOXOXOXOXOX",
"OXOXOXOXOXOXOXOXOXOXOXOXOXOXOXOXOXOXOXOXOXOXOXOXOXOXOXOXOXOXOXOXOXOXOXOXOXOXOXOXOXOXOXOXOXOXOXOXOXOXOXOXOXOXOXOXOXOXOXOXOXOXOXOX",
"OXOXOXOXOXOXOXOXOXOXOXOXOXOXOXOXOXOXOXOXOXOXOXOXOXOXOXOXOXOXOXOXOXOXOXOXOXOXOXOXOXOXOXOXOXOXOXOXOXOXOXOXOXOXOXOXOXOXOXOXOXOXOXOX",
"OXOXOXOXOXOXOXOXOXOXOXOXOXOXOXOXOXOXOXOXOXOXOXOXOXOXOXOXOXOXOXOXOXOXOXOXOXOXOXOXOXOXOXOXOXOXOXOXOXOXOXOXOXOXOXOXOXOXOXOXOXOXOXOX",
"OXOXOXOXOXOXOXOXOXOXOXOXOXOXOXOXOXOXOXOXOXOXOXOXOXOXOXOXOXOXOXOXOXOXOXOXOXOXOXOXOXOXOXOXOXOXOXOXOXOXOXOXOXOXOXOXOXOXOXOXOXOXOXOX",
"OXOXOXOXOXOXOXOXOXOXOXOXOXOXOXOXOXOXOXOXOXOXOXOXOXOXOXOXOXOXOXOXOXOXOXOXOXOXOXOXOXOXOXOXOXOXOXOXOXOXOXOXOXOXOXOXOXOXOXOXOXOXOXOX",
"OXOXOXOXOXOXOXOXOXOXOXOXOXOXOXOXOXOXOXOXOXOXOXOXOXOXOXOXOXOXOXOXOXOXOXOXOXOXOXOXOXOXOXOXOXOXOXOXOXOXOXOXOXOXOXOXOXOXOXOXOXOXOXOX",
"OXOXOXOXOXOXOXOXOXOXOXOXOXOXOXOXOXOXOXOXOXOXOXOXOXOXOXOXOXOXOXOXOXOXOXOXOXOXOXOXOXOXOXOXOXOXOXOXOXOXOXOXOXOXOXOXOXOXOXOXOXOXOXOX",
"OXOXOXOXOXOXOXOXOXOXOXOXOXOXOXOXOXOXOXOXOXOXOXOXOXOXOXOXOXOXOXOXOXOXOXOXOXOXOXOXOXOXOXOXOXOXOXOXOXOXOXOXOXOXOXOXOXOXOXOXOXOXOXOX"
};
