/* XPM */
static char *e3f7d4a3c0684e9be40463c2f55540b7dEmgXcddUBxM8ENe[] = {
/* columns rows colors chars-per-pixel */
"64 64 213 2 ",
"   c #000001",
".  c #01000B",
"X  c #070010",
"o  c #0B0012",
"O  c #110016",
"+  c #160019",
"@  c #1A001D",
"#  c #1E0120",
"$  c #200521",
"%  c #210C22",
"&  c #221323",
"*  c #241B25",
"=  c None",
"-  c None",
";  c None",
":  c None",
">  c #2C342C",
",  c #2F3A2E",
"<  c #303D2F",
"1  c #342C35",
"2  c #323432",
"3  c #006A00",
"4  c #007807",
"5  c #007518",
"6  c #364A34",
"7  c #364B34",
"8  c #3C5639",
"9  c #007425",
"0  c #1A6A38",
"q  c #1D7C34",
"w  c #277A3B",
"e  c #405E3D",
"r  c #41613E",
"t  c #2A5E49",
"y  c #2C6847",
"u  c #306B49",
"i  c #2C7242",
"p  c #337C44",
"a  c #367749",
"s  c #35744A",
"d  c #3A7C4A",
"f  c #505A4F",
"g  c #476C43",
"h  c #4C7447",
"j  c #4D7649",
"k  c #517E4C",
"l  c #70786F",
"z  c #008010",
"x  c #0A8128",
"c  c #16822D",
"v  c #1D8331",
"b  c #29823A",
"n  c #31853E",
"m  c #339538",
"M  c #31A12C",
"N  c #48B23B",
"B  c #54E800",
"V  c #54E50F",
"C  c #55D134",
"Z  c #5CE528",
"A  c #64E63B",
"S  c #358243",
"D  c #3A8447",
"F  c #3A8A44",
"G  c #3D844A",
"H  c #3F894A",
"J  c #3E9741",
"K  c #42874E",
"L  c #428C4B",
"P  c #55844F",
"I  c #429646",
"U  c #46924C",
"Y  c #48964D",
"T  c #4A9C4C",
"R  c #488853",
"E  c #588753",
"W  c #4B9252",
"Q  c #4E9A52",
"!  c #5D9356",
"~  c #519C55",
"^  c #54955A",
"/  c #5F9459",
"(  c #639B5D",
")  c #4DAB47",
"_  c #4DA24D",
"`  c #50A74D",
"'  c #52AC4D",
"]  c #55B64B",
"[  c #56B34D",
"{  c #5BBC4F",
"}  c #52A353",
"|  c #57A857",
" . c #5BB455",
".. c #5ABA50",
"X. c #65A15E",
"o. c #68BD5F",
"O. c #5F8E67",
"+. c #5E9A63",
"@. c #65986B",
"#. c #719C77",
"$. c #5FAF60",
"%. c #68A763",
"&. c #71AE6B",
"*. c #65B364",
"=. c #6DB266",
"-. c #69BA66",
";. c #72B66B",
":. c #74A378",
">. c #5DC34E",
",. c #5DCA49",
"<. c #5EC250",
"1. c #61CB4D",
"2. c #64DC46",
"3. c #64D34D",
"4. c #69DD4D",
"5. c #61C553",
"6. c #63CC52",
"7. c #69CC5B",
"8. c #67D252",
"9. c #69D554",
"0. c #6CDC53",
"q. c #6DD65A",
"w. c #72DA5E",
"e. c #67E641",
"r. c #69E545",
"t. c #6CEA45",
"y. c #6DE54D",
"u. c #6EE94C",
"i. c #71EB4E",
"p. c #73F04E",
"a. c #6FE352",
"s. c #71E653",
"d. c #73EA53",
"f. c #74E559",
"g. c #76EA5B",
"h. c #79EB5F",
"j. c #76F153",
"k. c #79F655",
"l. c #6ECF60",
"z. c #75C36C",
"x. c #77CD6D",
"c. c #75D866",
"v. c #75C671",
"b. c #7BC572",
"n. c #7BCA74",
"m. c #7DD674",
"M. c #7ED479",
"N. c #76E361",
"B. c #7AE563",
"V. c #7BEA64",
"C. c #7DE26C",
"Z. c #7EEA69",
"A. c #80CB78",
"S. c #81DB75",
"D. c #84D67C",
"F. c #85DB7C",
"G. c #80E66E",
"H. c #81EC6D",
"J. c #81F26B",
"K. c #82E572",
"L. c #86ED74",
"P. c #85E27A",
"I. c #88EA7A",
"U. c #8AEE7A",
"Y. c #86F173",
"T. c #89F277",
"R. c #8CF37C",
"E. c #90F77F",
"W. c #7DAA80",
"Q. c #85A989",
"!. c #87B488",
"~. c #8FB391",
"^. c #94B497",
"/. c #A2B6A5",
"(. c #8BDB84",
"). c #96CC91",
"_. c #8BE382",
"`. c #8EE985",
"'. c #90E786",
"]. c #91EC87",
"[. c #93EE89",
"{. c #8FF281",
"}. c #8FF882",
"|. c #92F485",
" X c #92FA85",
".X c #95F48A",
"XX c #99F68E",
"oX c #96FC89",
"OX c #99FA8E",
"+X c #9CF592",
"@X c #9DFC92",
"#X c #A1EC97",
"$X c #A1FF96",
"%X c #A5FF9A",
"&X c #A6F89C",
"*X c #A3CFA1",
"=X c #B6C7B7",
"-X c #ACF9A4",
";X c #B3F6AB",
":X c #B5EAB0",
">X c #C3F5BC",
",X c #BFD0C0",
"<X c #C5D7C6",
"1X c #C9D0C9",
"2X c #CEEECB",
"3X c #D1F7CC",
"4X c #D8FAD5",
"5X c #E0EDDF",
"6X c #DEE3E0",
"7X c #EAEDEB",
"8X c #ECF6EC",
"9X c #F3FAF3",
"0X c #FEFFFE",
/* pixels */
": : : : : : : : : : ; : : : : : : : : : ; : +   A.$X XR.oX+X+X+X@X@X@X+X@X+X@X%.  % : ; ; : : : : : : : : : : : : : : : : : : : ",
": : : : : : : : : - : : : : : : : : : : > : ! ( S.T.-X3X:XI.R.R.T.T.U.R.T.U.R.z.( P * > ; : : : : : : : : : : : : ; ; : : : ; : ",
": : : : : ; : : : : : : : : : ; : : : ; + . `.%XH.B 3X0X4XV d.u.u.u.s.u.u.s.t.R.%Xb.  % : : : : : : : : : ; : : : : : : : : : : ",
": : : ; : : : : : : : : : : : : ; ; - > P k F. Xc.C :X7X>XC q.8.9.9.9.0.0.0.3.C.oXn.j j * : : : : : : : : : : : : : : : : : : : ",
": : : : ; : : : : : : : : : - : : : & 8 .X@Xh.u.' d S v n L H H G H H S w F d <.t.H.$XD.+ > : ; : : : : : : : : : : : : : : : : ",
": : : : : : : : - : : : : : : : : > * 7 [.OXN.i.' H U R L L L L L L L @.#.^ D <.i.H.$XD.+ > : : : : : : : : : ; : ; : : : ; : : ",
": : : : : : : : : : : : : : : : : : % 7 .X@Xh.s.[ d L L L L L L L H L 7X0X^.9 6.i.H.$XD.O : : : : : : : : : : : : : : : : ; : : ",
"; : : : : : : - : : : ; : : : : : : * 7 [.XXh.s.' K L L L L L L L L L 8X0X^.9 7.i.H.$XD.@ , ; ; : : : : : : : : : : : : : : : : ",
": : : : : : : ; : : : : : ; ; > @ g ].`.h.g.' T U L K G ' y.c.].[.].|.&X-X;.S T I <.V.Z.].D.: = : : : ; ; : : : : : ; : : : : : ",
": : : : : : : : : : : : : : : : + j OXOXf.i.T d H D D p [ p.V.@X+X@X@XXXoX$.i H d ] Z g.$X].> ; : : : : : : : : ; : : : : : : : ",
"; : : : : : : : : : ; : : : : > # j @XXXf.s.` D n._.P._.C.a.f.Z.Z.V.V.Z.V.P._.-.5 *X8X3XoX'., > : : : : : : : : : : : : : : ; : ",
": : : - : : : : : : : : : : : *   8 }.}.d.d.T 0 _.$X@X$X Xu.d.i.u.i.i.y.y.|.%Xn.3 =X0X9XoX'.o . ; : ; : : : : : : : : : : : : : ",
": : : : ; : : : : : : : : > + j v.).4X3X7.] x.M.C.L.Z.Y.c...{ ........a.f.V.Y.o.w W.=X*XZ.G.b.z.7 & > : : : : ; : ; : : : ; : : ",
": : ; : : : : : : : : ; : , . ( @X;X0X0XO.i [.%XZ.r.u.p.>.u d D d s s a.d.y.u.] i b 4 M u.d.@X+Xr @ > : : : : : : : : : : : : : ",
": : : : : : : : : : : : ; > o ( oX+X3X2X^ F `.+XZ.i.9.<.<...[ L U { { <.<.0.d.c.z.*.d  .d.g.XX.Xe # : : : : : : : : : : ; : : : ",
": : : : : : : : ; : : : ; > o ! @XR.Z Z H G ].@XZ.j...y [ k.0.G T d.d.T s 8.u.R.%XF.i | s.g.XXXXe # > : : ; : : : : : : : : : : ",
": : ; : : : : : : : : ; ; , O ! @X|.g.f.U H P.|.c.3.[ G ' 9.<.H U 6.3.T D 9.s.H. Xx.s ' d.g.XX.Xr & > = : ; : : : : : : : ; : : ",
": - : : : : : : : : : ; : :   ! @X|.i.a.U H 4.p.' d H L H G H L L H G L G 9.d.y.s.1.i ) d.g.oX].8 X : ; ; : : : : : : : : : : : ",
": : : : : : : ; : : : : * 8 8 %.OX{.0.9.U G 8.a.' G L L L L L L L L L L H 5.0.a.d.9.^  .4.w.&X-XE r 7 * : ; ; : : : : : : ; : : ",
": : : : : : : : : : : ,   =.$XU.u.4.L L H L L L L L L G H H H H H L L L L L H 5.i.H.$XP.w :.0X0X&X.XP O > : : : : - : : : : : : ",
": : : : : : - : : ; ; >   =.$X|.h.w.L L U U H L L H U U U L W L L L L L L L D 5.i.K.@X_.q :.9X0X&XoXE O > ; : : : : : ; : : : : ",
"- : : : : : : : : : - , o ;.oX;X0X5XF U 9.a.T H U S v.XX[..X[..X].U L L H U d 5.i.H.@X_.p Q L.L..X$XP + > ; : : : : : : : : : : ",
": : : : : : : : : ; : ;   &.oX>X0X8XS U a.d._ H H w n.@X@X@XOX@X.XL D L L L d 6.i.J.@X_.d T e.u..X$Xj   ; : ; ; : : : : : : - : ",
": : ; : : : : : - > O =.(.K.h.S.~.W.H U a.d.T p n.].K.h.V.B.V.V.Z._._.~ H L L T _ 5.Z.w.H U |  .f.Z.S.'.! O > ; : : : : : : : : ",
": : : : : : : : = >   n.$XL.t.1.9 v d H s.d.` p (.%XY.r.s.d.i.u.f.+X@X~ i H L L a [ i.3.p w 5 5 4.u.|.%XX.. , = - : : : : : : : ",
": : : : : : : : = , . n.$XL.i.8.k Q 8.<.[ [ T G l.Y.N.s.9.' <.s.d.H.Z.S.F.| D U G ..d.B.F.(.6X<XZ.r.|.@XX.. > - : : : ; : : ; : ",
": : ; : : : : = ; , . n.$XL.i.8.d _ k.d.L D D i ,.u.i.j.6.u _ d.s.i.i.OX%X-.S U G [ u.Z.OX-X0X0XI.A |.@XX.. > = : : : : : : : : ",
": : : : : : : : = , . b.$XL.u.8.R Q <...U L -.v.w.d.9.<.[ L T <.<.<.<.K.R.| D L G [ i.Z.OX#X<X=XC.y.|.@XX.. , = : : : : : : : : ",
": : - : : : : : = > . n.$XL.s.1.5 x G G K L .X%XJ.i...s H L H D G G D 4.i.' D L d ..i.Z.+X].4 4 4.u.].$XX.. , - : : : : : : : : ",
"; : : : : : : : ; > . b.$XL.A S./.~.L L L D n.(.N.d...G L L L L L L L 5.9._ G U H ..i.Z.OX.XW W f.d.R.$XX.. , = : : : : : - : : ",
": : : : : : : : ; > . n.$XU.V ;X0X8Xn L L L p i 1.j.{ d L L L L L G G G G L L L s [ i.V.@X|.R I 2.A R.$XX.. , = : : : : = : : : ",
": : : : : : : ; - > . n.$XL.A #X9X6XD L L L T _ 9.j.{ D U H L H L T _ U L L H Y T 5.i.V.+X].L R I.[..X@XX.  > = : : : : : : : : ",
": : : : : ; : : ; , . b.@XL.u.8.S H H H H H 0.d.s.d...G U L K H T f.s.Y D L D <.d.s.y.V.@X[.L W 9X0X;XoX@.  , - : : : : : : = : ",
": : : ; : : : : = , . n.%XL.u.8.D L U U H H 0.d.a.d...G H H L H U a.s.} W U D >.s.f.y.V.@X[.L R 8X0X;XOX%.. , - : : : : : : : : ",
": : : : : : : : = > . n.@XL.u.9.d _ s.a.U H 9.d.[ U U H L L L H Y a.s.|.XX*.S W L ..i.V.+X].L U B.H.|.@X( . , = : : : : : : : : ",
": - : : : : : : - , . n.@XL.t.3.d _ d.s.U H 0.j.' d L L L H L H Y y.s. X@X*.S L s ..i.Z.@X|.L L 4.t.{.$XX.. > = : : ; : : : : : ",
": : : : : : - : = , . b. X>X9X<Xc U _ _ H U T _ U L L H H K L H Y s.s..X@X*.p U G ..i.V.@X[.L L 0.d.R.$X( . > ; : : - : : : : : ",
": : : : : : : : - > . A. X4X0X6X5 W H G S S G G H H L L H D H H U y.s.|.@X*.S L G ..y.Z.@X.XL L 0.s.|.@XX.. , = : : : : : : : : ",
": : : : : : ; ; - , . b.OX#X;X).S U H W M._.} H U H U H ` 9.<.G T s.d..X+X*.S U G [ d.0.-.*.L U s.s.`.$XX.. , = : : : : : : : : ",
": : ; : : : : ; - ,   A.%XJ.B C s G H W OX@X+.s H L D i ' k.0.d L y.d.oX$X*.p L s [ j.3.i D d H 4.t. X$X%.  , ; : : : : : ; : : ",
": : : : : : : : : : @ ! =.n.E.S.<...H W .XXX7.<.} S *.n.x.d.0...5.s.f.x.n.| d ' >.7.R.G.K Y >.5.L.Y.;.;.j @ : ; : : ; : : : : : ",
": : : : : ; : : : : > @   =.$X|.p.0.G Q XX@Xh.i.[ i M.%X Xr.i.d.d.y.y.I i L G 6.i.Y.@X_.p T s.d.oX$Xj   * : : : ; : : : : : : : ",
": : : : : ; : : : : = < O =.$XU.i.0.K W M.M.Z.Y. .i -.(.C.L.V.a.d.H.Z._ L L D 6.i.L.@X_.G ~ s.d..XOXP # , = : : : : : : : : : - ",
": - : : : : : : : : = ,   ;.$XR.y.3.c c S p ].@X-.S H 0 -.%X Xu.h.+X+X| D L a >.t.Z.@X_.5 m y.s. X$XP o > : : : : : : : : : : : ",
": : : : : : : : : : : > o @._.S.h.C.Q.Q.W H `.@X-.S U D *.].P.4.q._._.~ D _ T 7.V.K.`.(.Q.!.V.V.F.(.h + > = ; : : : : : : : : ; ",
": : : ; : : : : : : : : : :   / oX;X0X0X+.S `.@X*.S L L H H D G L F D L H 9.i.R.@XF.3 ^.0X9X+X.Xe X : : : : : : : : : : : : : : ",
": : : : : : - : : : : : : , o ( oX-X9X9X+.S ].@X-.F U H H L L L L L L L G 6.y.K.@XM.9 ~.0X8XOX.Xr $ > : : : : = ; : : : : : : : ",
"; : : : : : : : : : : = = , o / @X|.V.N.U D `.@XC.i...G L L L L L L L L H L U U U U D | V.C.oXXXe # > : : : : : : : : - : : : : ",
": : : : : : : : : : : : ; > X ! $X|.y.4.U D `.@XZ.i.<.D L L L L L L L L L L L L L L K ` u.f.XXXXe # > ; : : ; : : : : : : : : : ",
": : : : ; : : : : : : : : > o ! OX|.d.f.U L `.@XZ.u...d ' a.1.H T 9.0.I.[.| D L L L G ` d.g.OX.Xe # : ; : : : : : : : : : ; : : ",
": : : : : : : : - : : : = , X ( $X Xi.0.L d ].@XZ.t...u [ k.9.d U y.s.oX%X*.S L L L d _ u.f.OXOXr # > : : : : : : ; : : : ; : : ",
": : : - : : : : : : : : : : & 8 E X..XR.9.3.o.%.P. XC.8.5.) ..9.8.f.f.-.*.Q L L H ` 3.w. XI.! E < = : : : : : : : : : : : : : : ",
": : : : : : ; : : : : : : : : =   r oX Xd.d.T 0 F.%XY.t.3.t _ u.u.y.y.I w K L L d ..i.V.$X].O o ; ; : : : : : : : : : : : : : : ",
": : : : : - : : : : : : : : ; >   l 4X3XZ.u.} K -.z.m.R.c.>.7.T.L.U.L.} L W P U H [ s.Z.+X'., > : ; : : : : : : : : : : : : : : ",
": ; : : : : : : : : : : : : ; 2   l 0X0XH.A Y s D 0 M.%X Xt.Z.$X@X@X@X| F c z b s [ t.V.$X[.: = : : : : : : : : : ; : ; : : ; : ",
": : : : : : : : : : : : : : : :   f 1X1XL.H.5...T D *.F.x.,.7.m.M.D.D.~ n ^.=X!.N q.Y.G.b.;.> ; : : : : : : : : : : : : : : : : ",
": : : ; ; : : : : : : : : : : ; : *     .X@XV.p.' G D p p K G p p 5 5 L 9 7X0X>XB T.%XD.  O : : : : : : : : : : : : : : : ; : : ",
": : : : : : : : : : : : : : : : - > 1 e .XOXh.s. .K U U L U L L W ~.^.+.v ,X7X#XZ H.@XD.$ < : : : : : : : : : = : : : : : : : : ",
": : : : : : : : : : : : : : : ; : : & 7 .X@Xh.i.) q F H K L K w @.0X0X:.w S 9 5.i.H.%XD.O : : : : : : : : : : : : : ; : ; : : : ",
": : : : : : : : : : : : : : : : : : * 7 (.].B.d.;.#.( I Y T T J %.9X9X:.m ~ Y 7.h.K.[.n.@ > : : : : : : : : : ; : : : : : : : : ",
"; : : : : : : ; ; : : : : : ; : : : : : > = `. X8X0X>XZ f.u.s.s.s.f.f.s.u.s.y.T.$Xz.O , : : : : : : : : : : : : : : : : : : : : ",
": : : : : : : : : : : : : : : : : : : : = # (.|.4X0X:XZ g.f.f.d.d.s.i.f.f.s.u.L.$Xz.  > : : : : : : ; : : : : : : : : : : : : : ",
": : : : : : : : : : : : : : : : : : : : : : e 7 (.-X&X|.XX X XXX X.XXX X X.XOX=.7 8 = : : : : : : : : : : : : : : : : : : = : ; ",
": : ; : : ; : : : : : : ; : : : : - : : ; - ;   n.oX.X@X+XXXXXXXOX+X+XXXXXXX$X%.  : : : : : : : : : = : : : : : : : : : : : : : "
};
