/* XPM */
static char *_8302594ec1f4c6e88315538a2825c05oUqOz5Z0w9pV3MqD[] = {
/* columns rows colors chars-per-pixel */
"64 64 127 2 ",
"   c #32000F",
".  c #3A000F",
"X  c #250015",
"o  c #2D0115",
"O  c #2D0118",
"+  c #330215",
"@  c #3B0414",
"#  c #350A15",
"$  c #3C0C15",
"%  c #320218",
"&  c #360C18",
"*  c #3B0D19",
"=  c #3D1116",
"-  c #3C1119",
";  c #55060F",
":  c #560C0F",
">  c #4B100D",
",  c #5C140F",
"<  c #410614",
"1  c #4B0712",
"2  c #430B14",
"3  c #4B0D12",
"4  c #420D18",
"5  c #520B10",
"6  c #580E12",
"7  c #431316",
"8  c #4B1415",
"9  c #451A17",
"0  c #4D1B16",
"q  c #441419",
"w  c #4A1419",
"e  c #451B19",
"r  c #4C1C19",
"t  c #541413",
"y  c #5B1512",
"u  c #531C16",
"i  c #5D1A14",
"p  c #521B19",
"a  c #591E18",
"s  c #60150F",
"d  c #63190F",
"f  c #631B12",
"g  c #691F14",
"h  c #4D2219",
"j  c #542216",
"k  c #5B2117",
"l  c #5D2C17",
"z  c #55241A",
"x  c #5D2419",
"c  c #56291A",
"v  c #5B2B1B",
"b  c #5D311D",
"n  c #662116",
"m  c #6A2315",
"M  c #6E2916",
"N  c #622519",
"B  c #6A2619",
"V  c #632C1B",
"C  c #6B2B1B",
"Z  c #712617",
"A  c #752C17",
"S  c #712719",
"D  c #732D1A",
"F  c #792E1A",
"G  c #64321D",
"H  c #6A341D",
"J  c #6D391E",
"K  c #75311C",
"L  c #7D331C",
"P  c #733B1E",
"I  c #7C3B1E",
"U  c #6D3621",
"Y  c #763120",
"T  c #7E3521",
"R  c #763D21",
"E  c #7C411E",
"W  c #7D4121",
"Q  c #82361D",
"!  c #84381C",
"~  c #84381D",
"^  c #87381D",
"/  c #863A1D",
"(  c #84381E",
")  c #833E1F",
"_  c #843D1C",
"`  c #863C1D",
"'  c #853D1E",
"]  c #88381E",
"[  c #88391E",
"{  c #893E1D",
"}  c #893C1E",
"|  c #813520",
" . c #843A20",
".. c #85401D",
"X. c #85411D",
"o. c #86411E",
"O. c #89421E",
"+. c #824320",
"@. c #814322",
"#. c #814421",
"$. c #834522",
"%. c #854622",
"&. c #884320",
"*. c #8A4620",
"=. c #8D4420",
"-. c #8E4722",
";. c #854923",
":. c #884A23",
">. c #8F4922",
",. c #8D4C23",
"<. c #8F4D22",
"1. c #8E4E23",
"2. c #8A4B24",
"3. c #8F4D24",
"4. c #904722",
"5. c #904B21",
"6. c #914B23",
"7. c #904C23",
"8. c #914E22",
"9. c #924E22",
"0. c #944E23",
"q. c #924D24",
"w. c #914E26",
"e. c #925226",
"r. c #945124",
"t. c #965124",
"y. c #955026",
/* pixels */
"z z z z $ r c z = q z z z z z z z z z z z x r $ $ $ = j c z z z z z c z z z j z c z j c z z c j z z z q & = $ 7 c v z z z c c z ",
"w.w.0.:.  J e.7.j j 0.w.w.w.w.w.w.7.w.w.w.e.R X q % q :.7.<.7.7.7.6.<.<.<.<.6.<.r.7.7.7.7.6.<.<.<.<.w.v X q X V 1.<.7.w.w.w.w.6.",
"' ' ' ' E ) ' ' R @.' ' ' ' ~ ' ' ' ' ' ~ ' I C $ b %.{ ] _ ~ Q O.<.X.! ' ~ <.<.' ' X. .' O.7.' ~ ' X.L N . H  .~  .X. ._ O.<.' ",
"Q Q L Q 4.{ Q L =.=.Q L Q Q Q Q Q Q Q L ( Q ( Q @ U 0.( Q Q Q Q ' O.~ ( L L ( O.~ L L L L ~ <.( L L ( ~ K + ;.>.F Q Q Q ! { O.Q ",
"Q Q ~ Q Q Q Q Q Q Q ~ Q Q Q Q Q ( ( L ( Q Q  .L @ H 7.' ! ! Q Q Q L Q ~ ~ Q L Q ~ Q ~  .Q Q Q Q ( Q Q ~ D % @.<.L ( Q ( Q ! L Q ",
"Q Q Q Q Q Q Q Q Q Q Q Q Q Q Q Q Q Q ( Q Q Q ( ~ @ H 7.! Q Q Q Q Q Q Q Q ~ ~ Q Q Q Q L ~ Q Q Q Q Q Q ( ~ D % $.=.L Q Q Q Q Q Q Q ",
"Q Q Q Q Q Q Q Q Q Q Q Q Q Q Q Q Q Q Q Q Q Q Q L @ J 6.! Q Q Q Q Q Q Q Q Q Q Q Q Q Q Q Q Q Q Q Q Q Q Q ~ C + X.<.! ! Q Q Q Q Q Q ",
"~ Q Q Q Q Q Q Q Q Q Q Q  .Q Q Q Q Q Q ( L ( ~ Q @ H r.! Q Q Q Q  .Q Q Q Q ~ Q Q Q ~ Q Q Q Q Q Q Q Q Q ! K o X.:.L L Q Q Q Q Q Q ",
"Q Q Q Q Q Q Q Q Q Q Q Q Q Q Q Q Q Q Q ~ L Q Q L $ U 7.~ Q Q Q Q Q Q Q Q Q Q Q Q Q Q | Q Q Q Q Q Q Q ~ ~ C # K ~ ! ! Q Q ~ Q Q Q ",
"~ Q Q Q Q ! ! ! Q Q Q Q Q Q Q ~ Q Z L ~ Q Q ~ Q * C O.~ Q Q Q Q Q Q Q Q Q Q Q Q Q A A ~ Q Q Q ~ | Q Q ~ K o K ~ L L Q Q Q Q Q Q ",
"Q Q ~ Q Q F F F L Q Q Q Q Q F F D ; m I L F L S 4 k K ~ Q Q ~ Q Q ~ L L ( Q Q ~ ~ f y L L ~ Q F L F Q L V $ C L Q ( Q Q Q Q Q Q ",
"~ ~ ~ ~ ] S , , L  .Q ~ ~ Q g 3 * $ t f f , u $ = $ 7 L ~ Q ~ Q Q Q f Z  .~ Q ~ ] z < f L ! L g y g ~ k o 7 o N ~ ~ ~ ~ Q ~ Q ~ ",
"u a a u z 8 @ < 8 u u 0 r 8 < + % % % @ 2 @ @ o % o % 8 u 0 a z u u < 4 u t 8 u p @ o < 8 t 0 < @ < p & o % O $ p r u j u u a a ",
"z & o # o e v v v h o z c c c v v v v v c c c c v v v c c h O % + + h c c c c c z c v c c c c v v v z x v v c c c v e o # + + o ",
"w.a + q o R r.7.r.E + %.0.w.w.w.O.r.7.7.<.6.7.7.<.<.7.<.e.%.$ 4 = = ;.e.7.<.<.<.e.1.1.<.1.r.1.7.7.7.7.7.e.7.7.7.>.e.P o - = = $ ",
"( L z - E ..' ' ' ~ K ~ O.6.0.O.) r.O.' ' ! ~ ' ) ' ' ~ ~ Q Y 4 j X.' ~ ! _ ..' ~ ~ ' ' ~ &.w.) O.r.7.O.~ ' ' ' ] ~ ~ C 7 X q &.",
"L ] V = e.O.( Q Q Q  .Q  .O.&.~ Q &.~ L | Q Q Q Q Q Q Q F Q  .8 V e.~ L L Q Q L Q L Q ~ L ~ &.L X.O.&.' L Q Q L Q L ~ L 2 z P O.",
"Q ~ N - :.O.L Q ( Q Q Q Q Q Q Q Q Q Q Q ~ ( Q Q Q Q Q Q ~ Q | w l 6.I L Q Q Q Q Q Q Q Q Q Q Q Q ~ Q Q ( Q Q Q Q Q Q Q L % R 7.Q ",
"Q ~ N - :.{ Q Q Q Q Q Q Q Q Q Q Q Q Q Q Q Q Q Q Q Q Q Q Q Q Q 3 l 0.m m Q Q Q Q Q Q Q Q Q Q Q Q Q Q Q Q Q Q Q Q Q Q ~ L + R 7.~ ",
"Q ] B = <.{ Q Q Q Q Q Q Q Q Q Q Q Q Q Q Q Q Q Q Q Q Q Q Q Q Q p q H M F ~ Q Q Q Q Q Q Q Q Q Q Q Q Q Q Q Q Q Q Q Q Q ~ L $ z K ! ",
"Q Q x = :.O.Q ~ Q Q Q Q Q Q Q Q Q Q Q Q Q Q Q Q Q Q Q Q Q ( ( p + @ D ~ L Q Q Q Q Q Q Q Q Q Q Q Q Q Q Q Q Q L L Q ~ Q L 7 X 7 Q ",
"L 0 O e 2.O.Q ! Q Q Q Q Q Q Q Q Q Q Q Q Q Q Q Q Q Q Q Q Q Q Q r < g L D s ( ( Q Q Q Q Q Q Q Q Q Q Q Q Q Q Q f g  .L ~ L 7 o 8 L ",
"~ i < q  .] Q Q Q Q ( | Q Q Q Q Q Q Q Q Q Q F g ! ( ! Q Q Q ~ a # 8 g M A m F ' ~ Q Q Q Q ~ ~ ~ Q ~ Q Q Q L ..L f m L L $ N L ~ ",
"K f 3 q C F Q Q Q Q Q Q Q Q Q Q Q ~ Q Q Q ~ F f D D D Q ( L K r # & 1 M ~ t m L D L Q Q L A D L F L Q Q Q L w.X.m t n C # N Y D ",
"y 7 * = o B ~ L Q Q Q Q | ( (  .~  .Q Q Q Q ~ Q w O 7 L ~ K + = = = o N ( 7 3 y # Z ~ | m > $ y y f L ] ~ | Q &.1.r + = = # # $ ",
"@ O o % & 7 p r r p p 0 r j r r r r p w 0 0 w r $ & = e r w & o o + $ 8 r = @ @ o $ w 7 @ + % + @ @ 8 7 7 w 3 9 r + o o o o o o ",
"G G G V 8 2 2 2 2 < o # + O 2 < < < < < < $ < < 3 3 3 $ 2 < 2 v G b 7 + # o h G G G v V V V G G V V l V v V v V v G V G G G G V ",
"O.6.e.<.g s f f f y 7 * * 7 f f d f d f d f d f i s i d f f , ' e.w.p # = + P 0.5.7.7.<.w.7.w.7.7.e.e.7.7.w.7.7.0.7.7.6.5.5.7.6.",
"_ _ ~ ! L L L F L L L * v 2.L L L L L L L L L L L L L L L L L ! ( ( I x = $.X.! Q ! ! ! <.r.<.' Q ' 7.O.Q ~ ~  .~ 6.O.Q _ ! ' ! ",
"Q Q Q Q ( ( Q ! ~ ~ ~ 3 G 0.~ Q ~ ' ~ Q ~ ~ Q Q Q ~ ~ ~ Q ] ~ Q Q ! ~ m = :.O.L Q Q Q L ) O.X.L L Q O.' Q Q L ~ Q O.' Q ! L L ! ",
"( ( Q ! Q Q Q Q Q Q | 7 G 6.~ L ~ ! L Q Q Q Q Q Q Q Q Q ~ ~ Q Q Q Q ' N $ :.O.! Q Q Q Q Q L Q Q Q Q ! ! Q Q Q Q Q Q Q Q Q Q ! Q ",
"Q Q Q Q Q Q Q Q Q Q ~ 4 V e.~ ~ Q Q Q Q Q Q Q Q Q Q Q Q Q Q Q Q Q Q ~ n = :.' ! Q Q Q Q ! ! Q Q Q Q Q ( Q Q Q Q Q Q Q Q Q Q Q Q ",
"Q Q Q Q Q Q Q Q ~ F x % G w.! ! Q Q Q Q Q Q Q Q Q Q ~ Q Q Q Q Q Q L ! N = 7.O.L Q Q Q Q Q Q Q Q ~ Q Q Q Q Q Q Q Q Q Q Q Q Q Q Q ",
"Q Q Q Q Q Q Q Q ' D @ o G <.Q Q Q Q Q Q Q L L Q Q Q Q Q Q Q Q Q Q Q ] N # E X.! Q Q Q Q Q Q Q Q Q Q Q Q Q Q Q Q Q Q Q Q Q Q Q Q ",
"Q Q Q Q Q Q ~ ( ! A y @ G 7.~ ( Q Q Q Q ( f g ( Q Q Q Q Q Q Q Q Q Q ! B + o V ! L Q Q Q Q Q Q | Q Q Q Q Q Q L ~ Q Q Q Q Q Q Q Q ",
"Q Q Q Q ( S m ~ ! ! L 7 k { Q ( ( ~ A g n A L ! Q Q Q L ( ~ Q ~ Q ( Z t = M ( ! Q Q Q Q Q Q Q L Q Q Q Q L ! ~ ' ~ Q Q Q Q Q Q Q ",
"Q Q Q Q ~ D m D A A D q 0 D L L D F f 3 , Z L ( Q Q ~ ~ K D Q F F F y $ - C L ~ ~ ~ ~ ~ ! ! ! ! Q Q ~ Q Q Q L Z C ( ~ ( | Q ~ ( ",
"L Q Q Q |  .L t , t # = # 7 L Z : d 7 = i 6 m ( Q Q Q  .j 7 Q m y y 7 = - o V ( L L L Q L L L ! L Q L Q Q L g 3 & K ( L Q L L L ",
"8 0 w @ < @ @ + + + o X o o @ @ + + @ $ * 4 = @ @ @ @ 4 +   $ @ + + o o o X 4 8 7 0 w @ < < @ 2 < @ < @ < @ @ % o @ < < < 7 r 8 ",
"# o e H G G G H H G G H H G G G G G h + * o h U G G G G H G V H G G G G G U j X # o q G G V G G G G U G G G G U H G G G H 9 o # ",
"= $ H w.w.6.7.5.w.w.<.<.<.<.7.7.7.0.G + 7 @ G e.1.w.7.6.7.7.0.7.7.7.r.r.<.0.H @ 7 $ V w.7.7.r.r.7.7.7.7.7.w.<.6.6.0.7.7.r.G @ = ",
"$ @.&.Q ' ! ! ! =.<.' ! ~ ! ! Q ~ ~ ~ C % W O.( ~ Q ' ( _ ' 6.' ~ ! 6.%.~ ~ ~ D % P =.~ ~ ' 7.7.r.7.I O.6.Q ~ Q ! ' ~ Q ~ ~ C $ ",
"$ %.=.Q Q Q ! L ' { L Q Q Q Q Q ( L ~ D o @.<.L Q Q Q Q ! L O.! Q L ' ' ( L ~ K o E 0.Q Q ~ O.X.O.O.Q ' { ! Q Q ! Q L Q ( ] K # ",
"$ %.=.Q Q ! ! ! Q Q Q Q Q Q Q Q ~ L ] D o X.O.L Q Q Q Q ! Q L ! ! ! L ! Q ( ' D + J $.| Q Q Q Q L ! Q Q L ! Q Q ! L Q Q Q ~ D # ",
"* $.=.Q ! Q Q Q Q ( Q Q Q Q Q Q Q Q  .K + X.&.' Q Q Q Q Q Q Q Q Q Q Q Q Q L Q L * o u Q Q Q Q Q ! Q Q Q ( Q Q Q Q Q Q Q Q Q D $ ",
"* $.=.Q ~ Q Q Q Q Q Q Q Q Q Q Q Q (  .D o X.7.L Q Q Q Q Q Q Q Q Q Q Q Q Q Q ~ L % J  .~ Q Q Q Q ! L Q Q Q Q Q Q Q Q Q Q Q Q D # ",
"* ..~ ~ Q Q Q ~ Q Q Q Q Q ( Q Q Q L ] K + I =.( Q Q Q Q Q Q Q Q Q Q Q Q Q Q ~ D + H X.Q ~ ~ Q Q Q Q Q Q Q Q Q Q Q Q Q Q Q Q D & ",
"$ K ~ Q Q Q Q ~ Q Q Q Q Q Q Q Q Q Q ~ K   D ( L Q Q Q Q Q Q Q Q ! Q Q Q Q Q Q L * o p  .Q Q Q Q Q Q Q Q Q Q Q Q Q ~ Q Q Q ! A & ",
"$ K ( L Q Q F 1 K { ~ Q Q Q Q Q Q Q ~ D + D ' ( ( Q Q Q Q Q Q Q ~ ~ Q ( Q Q ' K # & * 7 < x ! Q Q Q Q Q Q Q Q Q Q Q Q Q Q ] F # ",
"* L ( ( Q Q L v V B D Q ~ Q Q Q Q Q ] D o L L V Q ( Q Q Q Q Q ! L D L ~ Q ! ! K * 2 a G b C Q Q Q Q Q Q Q L Q Q Q ~ | ~ ~ F m $ ",
"$ D Q L ( Q _ <.v + , K Q Q Q Q ! Q Q C o K C o D Q L Q ! Q ! ~ A 6 L L L Q ~ D * 1 M <.6.O.Q Q Q Q Q Q ~ ! Q ! Q Q | Q ~ m 3 * ",
"= * C  .! ( ' ( 6.E @ 7 u g Q ~ ' ] N * = q 7 * f f f s F ] ! ] D 2 y A ~ ] B = * * 8 g ! { ( { ! ] ! ^ ~ ! ] F s 3 V ~ g 8 4 * ",
"# o 0 N N N l x H v % % + 2 a a i x 7 o @ + % # 1 4 w 1 a N a x u o @ u x N 4 o + & * 1 u x N N N N x x N x x u 3 # r x 8 < $ + ",
"0 r = o o o + o $ 7 0 e r r 9 0 9 e e j r h r e h q # * # & e e e 0 r 0 9 9 r 0 h 7 4 = @ # % % + + # @ # @ @ $ $ 2 * + $ $ 7 h ",
"2.<.J o 7 * % + I <.:.<.7.2.<.:.<.1.>.<.1.1.6.<.w.U o q % r 1.w.w.<.<.6.7.w.<.w.<.M ; i y t * 4 # @ y y y y y y , t , y y : n <.",
"O.O.I B $ V E P X.%.{ O.X.{ O.X.O.6.>.7.{ @.{ { &.T V @ V W { ' ~ O.X.O.7.' O.X.X.L A D L N o % v R F A A A D F F A A F A A L X.",
"Q L ( ( @ P t.O. .Q Q Q Q L Q Q ! O.O.O.L Q Q F F ! ( + R 0.F Q Q L L  .=.~ L L L Q ~ Q ~ D r % P e.! Q ~ ~ ~ ~ ' ! Q ~ ~ Q Q Q ",
"! Q ( L . P 7.L Q Q Q Q Q Q Q Q Q L I ! Q Q Q ! Q ! L + P 6. .Q Q Q ~ Q ~ Q Q Q Q Q Q Q Q ] L @ H 7.L Q Q Q Q Q Q L Q Q Q Q Q Q ",
"! Q Q L @ P 5.! Q Q Q Q Q Q Q Q ! Q Q Q Q Q Q ! Q ! L + P 7.L Q Q Q Q Q Q Q Q Q Q Q Q Q Q ~ Q @ J 0.Q Q Q Q Q Q Q Q Q Q Q Q Q Q ",
"Q Q Q Q @ P 5.L Q Q Q Q Q Q Q Q Q Q Q Q Q Q Q Q ! ! L % P 6.Q Q Q Q Q Q Q Q Q Q Q Q Q Q Q | Q $ l E L Q Q Q Q Q Q Q Q Q Q Q Q Q ",
"Q Q Q L + P 6.Q Q Q Q Q Q Q Q Q Q Q ! Q Q Q Q ! Q Q L + R <.L Q Q Q Q Q Q Q Q Q Q Q Q Q Q  .L r o 3 | ( L Q Q Q Q Q Q Q Q Q Q Q ",
"Q Q ( L $ V ] Q Q Q Q Q Q Q Q Q Q Q L Q Q ! ( ( ! ! L @ C ' Q Q | Q Q Q Q Q Q ~ Q Q Q Q ~ ~ L 7 < i L Q Q Q Q Q Q Q Q Q Q Q Q Q ",
"Q L L M $ i A Q Q Q Q Q Q Q Q Q Q Q Q Q Q A D ( D F L # C ~ ~ Q ~ Q Q Q Q Q Q Q Q ~ ~ Q A M x $ a F L ( ! Q ! Q Q Q ! L L ! Q Q ",
"L L M : * 1 f | Q Q Q Q Q Q Q Q Q Q Q ! Q i f | y B L # n | Q ~ Q Q Q Q Q Q Q Q ~ L L L i 1 # + V T ! ( Q ! L L ! ! ! L ! ! Q Q "
};
